M48
;DRILL file {KiCad 4.0.5+dfsg1-4~bpo8+1} date Mon Mar 12 17:06:10 2018
;FORMAT={-:-/ absolute / metric / decimal}
FMAT,2
METRIC,TZ
T1C0.400
T2C0.500
T3C0.550
T4C1.016
%
G90
G05
M71
T1
X133.45Y-117.3
X133.95Y-112.
X135.6Y-108.9
X135.95Y-110.4
X136.35Y-99.95
X136.45Y-107.4
X136.55Y-96.9
X136.55Y-98.8
X136.7Y-95.15
X137.456Y-94.164
X138.35Y-95.243
X138.4Y-120.45
X138.6Y-107.4
X141.2Y-99.1
X142.05Y-101.05
X143.3Y-114.85
X143.4Y-99.25
X143.75Y-119.85
X144.35Y-104.9
X144.44Y-95.243
X145.15Y-109.25
X145.25Y-113.8
X145.4Y-101.5
X146.05Y-90.122
X146.05Y-103.35
X146.75Y-89.272
X146.75Y-102.6
X146.95Y-108.
X147.2Y-118.7
X148.05Y-105.6
X148.35Y-107.5
X148.5Y-117.75
X148.85Y-90.122
X149.25Y-102.35
X149.25Y-106.3
X149.55Y-89.272
X149.75Y-101.6
X150.25Y-90.122
X150.75Y-103.1
X150.925Y-119.375
X151.15Y-104.75
X151.85Y-106.45
X152.06Y-88.513
X152.5Y-119.05
X152.75Y-109.75
X153.05Y-90.222
X154.95Y-115.2
X155.55Y-120.
X155.9Y-116.15
X156.15Y-106.4
X156.2Y-109.95
X156.35Y-104.45
X156.45Y-103.35
X156.696Y-89.973
X156.725Y-121.175
X158.5Y-107.65
X159.75Y-92.572
X162.538Y-91.878
X162.6Y-115.15
X162.7Y-117.65
X163.85Y-103.35
T4
X134.1Y-93.6
X134.1Y-96.14
X134.1Y-98.68
X134.1Y-101.22
X134.1Y-103.76
X134.1Y-106.3
T2
X145.Y-124.125G85X145.Y-123.475
G05
X152.Y-123.475G85X152.Y-124.125
G05
T3
X145.85Y-121.1G85X146.15Y-121.1
G05
X150.85Y-121.1G85X151.15Y-121.1
G05
T0
M30
