%TF.GenerationSoftware,KiCad,Pcbnew,4.0.5+dfsg1-4~bpo8+1*%
%TF.CreationDate,2018-03-12T17:06:03-03:00*%
%TF.ProjectId,treasure,74726561737572652E6B696361645F70,rev?*%
%TF.FileFunction,Soldermask,Bot*%
%FSLAX46Y46*%
G04 Gerber Fmt 4.6, Leading zero omitted, Abs format (unit mm)*
G04 Created by KiCad (PCBNEW 4.0.5+dfsg1-4~bpo8+1) date Mon Mar 12 17:06:03 2018*
%MOMM*%
%LPD*%
G01*
G04 APERTURE LIST*
%ADD10C,0.254000*%
%ADD11R,0.800000X3.400000*%
%ADD12R,1.150000X1.600000*%
%ADD13R,1.600000X1.150000*%
%ADD14R,3.199080X1.598880*%
%ADD15R,3.199080X1.400760*%
%ADD16R,1.400000X1.400000*%
%ADD17R,1.200000X2.300000*%
%ADD18R,1.600000X1.300000*%
%ADD19R,1.300000X1.600000*%
%ADD20R,2.000000X0.650000*%
%ADD21R,0.650000X2.000000*%
%ADD22C,1.900000*%
%ADD23C,2.432000*%
%ADD24R,2.045000X1.950000*%
%ADD25O,1.650000X2.250000*%
G04 APERTURE END LIST*
D10*
D11*
X158650000Y-92572000D03*
X157950000Y-92572000D03*
X157250000Y-92572000D03*
X156550000Y-92572000D03*
X155850000Y-92572000D03*
X155150000Y-92572000D03*
X154450000Y-92572000D03*
X153750000Y-92572000D03*
X153050000Y-92572000D03*
X152350000Y-92572000D03*
X151650000Y-92572000D03*
X150950000Y-92572000D03*
X150250000Y-92572000D03*
X149550000Y-92572000D03*
X148850000Y-92572000D03*
X148150000Y-92572000D03*
X147450000Y-92572000D03*
X146750000Y-92572000D03*
X146050000Y-92572000D03*
X145350000Y-92572000D03*
X144650000Y-92572000D03*
X143950000Y-92572000D03*
X143250000Y-92572000D03*
X142550000Y-92572000D03*
X141850000Y-92572000D03*
X141150000Y-92572000D03*
X140450000Y-92572000D03*
X139750000Y-92572000D03*
X139050000Y-92572000D03*
X138350000Y-92572000D03*
D12*
X142000000Y-111650000D03*
X142000000Y-113550000D03*
X135150000Y-112200000D03*
X135150000Y-114100000D03*
D13*
X153050000Y-97400000D03*
X151150000Y-97400000D03*
X157200000Y-97400000D03*
X155300000Y-97400000D03*
X138300000Y-97400000D03*
X140200000Y-97400000D03*
D12*
X157950000Y-105900000D03*
X157950000Y-104000000D03*
D13*
X160500000Y-107050000D03*
X162400000Y-107050000D03*
D12*
X157950000Y-99850000D03*
X157950000Y-101750000D03*
D13*
X160500000Y-108900000D03*
X162400000Y-108900000D03*
X160500000Y-99650000D03*
X162400000Y-99650000D03*
X160500000Y-105200000D03*
X162400000Y-105200000D03*
X160500000Y-103350000D03*
X162400000Y-103350000D03*
X160500000Y-101500000D03*
X162400000Y-101500000D03*
X138700000Y-102200000D03*
X136800000Y-102200000D03*
X148900000Y-97400000D03*
X147000000Y-97400000D03*
X161350000Y-97400000D03*
X159450000Y-97400000D03*
X137050000Y-116900000D03*
X135150000Y-116900000D03*
X138700000Y-104100000D03*
X136800000Y-104100000D03*
X138700000Y-106000000D03*
X136800000Y-106000000D03*
D14*
X152100860Y-114780380D03*
D15*
X152100860Y-116499960D03*
X148499140Y-116499960D03*
D10*
G36*
X146899600Y-113899660D02*
X150098680Y-113899660D01*
X150098680Y-115300420D01*
X146899600Y-115300420D01*
X146899600Y-113899660D01*
X146899600Y-113899660D01*
G37*
D16*
X141100000Y-117650000D03*
X143600000Y-117650000D03*
D17*
X137650000Y-109200000D03*
X139550000Y-109200000D03*
X138600000Y-112200000D03*
D18*
X139850000Y-114850000D03*
X137650000Y-114850000D03*
D19*
X159950000Y-113650000D03*
X159950000Y-111450000D03*
X157800000Y-113650000D03*
X157800000Y-111450000D03*
X155650000Y-113650000D03*
X155650000Y-111450000D03*
X154100000Y-118975000D03*
X154100000Y-121175000D03*
D18*
X159100000Y-119000000D03*
X156900000Y-119000000D03*
X138750000Y-118900000D03*
X136550000Y-118900000D03*
X144700000Y-97400000D03*
X142500000Y-97400000D03*
D20*
X142500000Y-109400000D03*
X142500000Y-108900000D03*
X142500000Y-108400000D03*
X142500000Y-107900000D03*
X142500000Y-107400000D03*
X142500000Y-106900000D03*
X142500000Y-106400000D03*
X142500000Y-105900000D03*
X142500000Y-105400000D03*
X142500000Y-104900000D03*
X142500000Y-104400000D03*
X142500000Y-103900000D03*
X142500000Y-103400000D03*
X142500000Y-102900000D03*
X142500000Y-102400000D03*
X142500000Y-101900000D03*
D21*
X144750000Y-99650000D03*
X145250000Y-99650000D03*
X145750000Y-99650000D03*
X146250000Y-99650000D03*
X146750000Y-99650000D03*
X147250000Y-99650000D03*
X147750000Y-99650000D03*
X148250000Y-99650000D03*
X148750000Y-99650000D03*
X149250000Y-99650000D03*
X149750000Y-99650000D03*
X150250000Y-99650000D03*
X150750000Y-99650000D03*
X151250000Y-99650000D03*
X151750000Y-99650000D03*
X152250000Y-99650000D03*
D20*
X154500000Y-101900000D03*
X154500000Y-102400000D03*
X154500000Y-102900000D03*
X154500000Y-103400000D03*
X154500000Y-103900000D03*
X154500000Y-104400000D03*
X154500000Y-104900000D03*
X154500000Y-105400000D03*
X154500000Y-105900000D03*
X154500000Y-106400000D03*
X154500000Y-106900000D03*
X154500000Y-107400000D03*
X154500000Y-107900000D03*
X154500000Y-108400000D03*
X154500000Y-108900000D03*
X154500000Y-109400000D03*
D21*
X152250000Y-111650000D03*
X151750000Y-111650000D03*
X151250000Y-111650000D03*
X150750000Y-111650000D03*
X150250000Y-111650000D03*
X149750000Y-111650000D03*
X149250000Y-111650000D03*
X148750000Y-111650000D03*
X148250000Y-111650000D03*
X147750000Y-111650000D03*
X147250000Y-111650000D03*
X146750000Y-111650000D03*
X146250000Y-111650000D03*
X145750000Y-111650000D03*
X145250000Y-111650000D03*
X144750000Y-111650000D03*
D22*
X140600000Y-120750000D03*
X159950000Y-116150000D03*
X157800000Y-116150000D03*
X142850000Y-122000000D03*
X133950000Y-109500000D03*
X162600000Y-112550000D03*
X144800000Y-115600000D03*
D23*
X134100000Y-93600000D03*
X134100000Y-96140000D03*
X134100000Y-98680000D03*
X134100000Y-101220000D03*
X134100000Y-103760000D03*
X134100000Y-106300000D03*
D24*
X144624500Y-123800000D03*
D25*
X151000000Y-121100000D03*
X146000000Y-121100000D03*
D24*
X152375500Y-123800000D03*
M02*
