%TF.GenerationSoftware,KiCad,Pcbnew,4.0.5+dfsg1-4~bpo8+1*%
%TF.CreationDate,2018-03-12T17:06:03-03:00*%
%TF.ProjectId,treasure,74726561737572652E6B696361645F70,rev?*%
%TF.FileFunction,Legend,Bot*%
%FSLAX46Y46*%
G04 Gerber Fmt 4.6, Leading zero omitted, Abs format (unit mm)*
G04 Created by KiCad (PCBNEW 4.0.5+dfsg1-4~bpo8+1) date Mon Mar 12 17:06:03 2018*
%MOMM*%
%LPD*%
G01*
G04 APERTURE LIST*
%ADD10C,0.254000*%
%ADD11C,0.100000*%
%ADD12C,0.150000*%
%ADD13C,0.120000*%
G04 APERTURE END LIST*
D10*
D11*
X134750000Y-111192857D02*
X134664286Y-111221429D01*
X134521429Y-111221429D01*
X134464286Y-111192857D01*
X134435715Y-111164286D01*
X134407143Y-111107143D01*
X134407143Y-111050000D01*
X134435715Y-110992857D01*
X134464286Y-110964286D01*
X134521429Y-110935714D01*
X134635715Y-110907143D01*
X134692857Y-110878571D01*
X134721429Y-110850000D01*
X134750000Y-110792857D01*
X134750000Y-110735714D01*
X134721429Y-110678571D01*
X134692857Y-110650000D01*
X134635715Y-110621429D01*
X134492857Y-110621429D01*
X134407143Y-110650000D01*
X134207143Y-110621429D02*
X134064286Y-111221429D01*
X133950000Y-110792857D01*
X133835714Y-111221429D01*
X133692857Y-110621429D01*
X133150000Y-111221429D02*
X133492857Y-111221429D01*
X133321429Y-111221429D02*
X133321429Y-110621429D01*
X133378572Y-110707143D01*
X133435714Y-110764286D01*
X133492857Y-110792857D01*
X163400000Y-114242857D02*
X163314286Y-114271429D01*
X163171429Y-114271429D01*
X163114286Y-114242857D01*
X163085715Y-114214286D01*
X163057143Y-114157143D01*
X163057143Y-114100000D01*
X163085715Y-114042857D01*
X163114286Y-114014286D01*
X163171429Y-113985714D01*
X163285715Y-113957143D01*
X163342857Y-113928571D01*
X163371429Y-113900000D01*
X163400000Y-113842857D01*
X163400000Y-113785714D01*
X163371429Y-113728571D01*
X163342857Y-113700000D01*
X163285715Y-113671429D01*
X163142857Y-113671429D01*
X163057143Y-113700000D01*
X162857143Y-113671429D02*
X162714286Y-114271429D01*
X162600000Y-113842857D01*
X162485714Y-114271429D01*
X162342857Y-113671429D01*
X162142857Y-113728571D02*
X162114286Y-113700000D01*
X162057143Y-113671429D01*
X161914286Y-113671429D01*
X161857143Y-113700000D01*
X161828572Y-113728571D01*
X161800000Y-113785714D01*
X161800000Y-113842857D01*
X161828572Y-113928571D01*
X162171429Y-114271429D01*
X161800000Y-114271429D01*
X143692858Y-115271429D02*
X143321429Y-115271429D01*
X143521429Y-115500000D01*
X143435715Y-115500000D01*
X143378572Y-115528571D01*
X143350001Y-115557143D01*
X143321429Y-115614286D01*
X143321429Y-115757143D01*
X143350001Y-115814286D01*
X143378572Y-115842857D01*
X143435715Y-115871429D01*
X143607143Y-115871429D01*
X143664286Y-115842857D01*
X143692858Y-115814286D01*
X143150000Y-115271429D02*
X142950000Y-115871429D01*
X142750000Y-115271429D01*
X142607143Y-115271429D02*
X142235714Y-115271429D01*
X142435714Y-115500000D01*
X142350000Y-115500000D01*
X142292857Y-115528571D01*
X142264286Y-115557143D01*
X142235714Y-115614286D01*
X142235714Y-115757143D01*
X142264286Y-115814286D01*
X142292857Y-115842857D01*
X142350000Y-115871429D01*
X142521428Y-115871429D01*
X142578571Y-115842857D01*
X142607143Y-115814286D01*
X158328571Y-117821429D02*
X158328571Y-117221429D01*
X158185714Y-117221429D01*
X158099999Y-117250000D01*
X158042857Y-117307143D01*
X158014285Y-117364286D01*
X157985714Y-117478571D01*
X157985714Y-117564286D01*
X158014285Y-117678571D01*
X158042857Y-117735714D01*
X158099999Y-117792857D01*
X158185714Y-117821429D01*
X158328571Y-117821429D01*
X157728571Y-117592857D02*
X157271428Y-117592857D01*
X157499999Y-117821429D02*
X157499999Y-117364286D01*
X160478571Y-117821429D02*
X160478571Y-117221429D01*
X160335714Y-117221429D01*
X160249999Y-117250000D01*
X160192857Y-117307143D01*
X160164285Y-117364286D01*
X160135714Y-117478571D01*
X160135714Y-117564286D01*
X160164285Y-117678571D01*
X160192857Y-117735714D01*
X160249999Y-117792857D01*
X160335714Y-117821429D01*
X160478571Y-117821429D01*
X159878571Y-117592857D02*
X159421428Y-117592857D01*
X141700000Y-119021429D02*
X141500000Y-119621429D01*
X141300000Y-119021429D01*
X140900000Y-119307143D02*
X140814286Y-119335714D01*
X140785714Y-119364286D01*
X140757143Y-119421429D01*
X140757143Y-119507143D01*
X140785714Y-119564286D01*
X140814286Y-119592857D01*
X140871428Y-119621429D01*
X141100000Y-119621429D01*
X141100000Y-119021429D01*
X140900000Y-119021429D01*
X140842857Y-119050000D01*
X140814286Y-119078571D01*
X140785714Y-119135714D01*
X140785714Y-119192857D01*
X140814286Y-119250000D01*
X140842857Y-119278571D01*
X140900000Y-119307143D01*
X141100000Y-119307143D01*
X140500000Y-119021429D02*
X140500000Y-119507143D01*
X140471428Y-119564286D01*
X140442857Y-119592857D01*
X140385714Y-119621429D01*
X140271428Y-119621429D01*
X140214286Y-119592857D01*
X140185714Y-119564286D01*
X140157143Y-119507143D01*
X140157143Y-119021429D01*
X139900000Y-119592857D02*
X139814286Y-119621429D01*
X139671429Y-119621429D01*
X139614286Y-119592857D01*
X139585715Y-119564286D01*
X139557143Y-119507143D01*
X139557143Y-119450000D01*
X139585715Y-119392857D01*
X139614286Y-119364286D01*
X139671429Y-119335714D01*
X139785715Y-119307143D01*
X139842857Y-119278571D01*
X139871429Y-119250000D01*
X139900000Y-119192857D01*
X139900000Y-119135714D01*
X139871429Y-119078571D01*
X139842857Y-119050000D01*
X139785715Y-119021429D01*
X139642857Y-119021429D01*
X139557143Y-119050000D01*
X143307142Y-120300000D02*
X143364285Y-120271429D01*
X143449999Y-120271429D01*
X143535714Y-120300000D01*
X143592856Y-120357143D01*
X143621428Y-120414286D01*
X143649999Y-120528571D01*
X143649999Y-120614286D01*
X143621428Y-120728571D01*
X143592856Y-120785714D01*
X143535714Y-120842857D01*
X143449999Y-120871429D01*
X143392856Y-120871429D01*
X143307142Y-120842857D01*
X143278571Y-120814286D01*
X143278571Y-120614286D01*
X143392856Y-120614286D01*
X143021428Y-120871429D02*
X143021428Y-120271429D01*
X142678571Y-120871429D01*
X142678571Y-120271429D01*
X142392857Y-120871429D02*
X142392857Y-120271429D01*
X142250000Y-120271429D01*
X142164285Y-120300000D01*
X142107143Y-120357143D01*
X142078571Y-120414286D01*
X142050000Y-120528571D01*
X142050000Y-120614286D01*
X142078571Y-120728571D01*
X142107143Y-120785714D01*
X142164285Y-120842857D01*
X142250000Y-120871429D01*
X142392857Y-120871429D01*
D12*
X140900000Y-88222000D02*
G75*
G03X140900000Y-88222000I-400000J0D01*
G01*
X156900000Y-88222000D02*
G75*
G03X156900000Y-88222000I-400000J0D01*
G01*
X137500000Y-92972000D02*
X137500000Y-88972000D01*
X137850000Y-92972000D02*
X137500000Y-92972000D01*
X159500000Y-92972000D02*
X159500000Y-88972000D01*
X159500000Y-92972000D02*
X159150000Y-92972000D01*
D13*
X141400000Y-112250000D02*
X141400000Y-112950000D01*
X142600000Y-112950000D02*
X142600000Y-112250000D01*
X134550000Y-112800000D02*
X134550000Y-113500000D01*
X135750000Y-113500000D02*
X135750000Y-112800000D01*
X152450000Y-96800000D02*
X151750000Y-96800000D01*
X151750000Y-98000000D02*
X152450000Y-98000000D01*
X156600000Y-96800000D02*
X155900000Y-96800000D01*
X155900000Y-98000000D02*
X156600000Y-98000000D01*
X138900000Y-98000000D02*
X139600000Y-98000000D01*
X139600000Y-96800000D02*
X138900000Y-96800000D01*
X158550000Y-105300000D02*
X158550000Y-104600000D01*
X157350000Y-104600000D02*
X157350000Y-105300000D01*
X161100000Y-107650000D02*
X161800000Y-107650000D01*
X161800000Y-106450000D02*
X161100000Y-106450000D01*
X157350000Y-100450000D02*
X157350000Y-101150000D01*
X158550000Y-101150000D02*
X158550000Y-100450000D01*
X161100000Y-109500000D02*
X161800000Y-109500000D01*
X161800000Y-108300000D02*
X161100000Y-108300000D01*
X161100000Y-100250000D02*
X161800000Y-100250000D01*
X161800000Y-99050000D02*
X161100000Y-99050000D01*
X161100000Y-105800000D02*
X161800000Y-105800000D01*
X161800000Y-104600000D02*
X161100000Y-104600000D01*
X161100000Y-103950000D02*
X161800000Y-103950000D01*
X161800000Y-102750000D02*
X161100000Y-102750000D01*
X161100000Y-102100000D02*
X161800000Y-102100000D01*
X161800000Y-100900000D02*
X161100000Y-100900000D01*
X138100000Y-101600000D02*
X137400000Y-101600000D01*
X137400000Y-102800000D02*
X138100000Y-102800000D01*
X148300000Y-96800000D02*
X147600000Y-96800000D01*
X147600000Y-98000000D02*
X148300000Y-98000000D01*
X160750000Y-96800000D02*
X160050000Y-96800000D01*
X160050000Y-98000000D02*
X160750000Y-98000000D01*
X136450000Y-116300000D02*
X135750000Y-116300000D01*
X135750000Y-117500000D02*
X136450000Y-117500000D01*
X138100000Y-103500000D02*
X137400000Y-103500000D01*
X137400000Y-104700000D02*
X138100000Y-104700000D01*
X138100000Y-105400000D02*
X137400000Y-105400000D01*
X137400000Y-106600000D02*
X138100000Y-106600000D01*
D12*
X152418240Y-113850000D02*
X153800000Y-113850000D01*
X153800000Y-113850000D02*
X153800000Y-114450000D01*
X141050000Y-116850000D02*
X143150000Y-116850000D01*
X141050000Y-118450000D02*
X143150000Y-118450000D01*
D13*
X140180000Y-111460000D02*
X139250000Y-111460000D01*
X137020000Y-111460000D02*
X137950000Y-111460000D01*
X137020000Y-111460000D02*
X137020000Y-108300000D01*
X140180000Y-111460000D02*
X140180000Y-110000000D01*
D12*
X138250000Y-115525000D02*
X139250000Y-115525000D01*
X139250000Y-114175000D02*
X138250000Y-114175000D01*
X159275000Y-112050000D02*
X159275000Y-113050000D01*
X160625000Y-113050000D02*
X160625000Y-112050000D01*
X157125000Y-112050000D02*
X157125000Y-113050000D01*
X158475000Y-113050000D02*
X158475000Y-112050000D01*
X154975000Y-112050000D02*
X154975000Y-113050000D01*
X156325000Y-113050000D02*
X156325000Y-112050000D01*
X154775000Y-120575000D02*
X154775000Y-119575000D01*
X153425000Y-119575000D02*
X153425000Y-120575000D01*
X157500000Y-119675000D02*
X158500000Y-119675000D01*
X158500000Y-118325000D02*
X157500000Y-118325000D01*
X137150000Y-119575000D02*
X138150000Y-119575000D01*
X138150000Y-118225000D02*
X137150000Y-118225000D01*
X143100000Y-98075000D02*
X144100000Y-98075000D01*
X144100000Y-96725000D02*
X143100000Y-96725000D01*
X143325000Y-110825000D02*
X143325000Y-109825000D01*
X153675000Y-110825000D02*
X153675000Y-109750000D01*
X153675000Y-100475000D02*
X153675000Y-101550000D01*
X143325000Y-100475000D02*
X143325000Y-101550000D01*
X143325000Y-110825000D02*
X144400000Y-110825000D01*
X143325000Y-100475000D02*
X144400000Y-100475000D01*
X153675000Y-100475000D02*
X152600000Y-100475000D01*
X153675000Y-110825000D02*
X152600000Y-110825000D01*
X143325000Y-109825000D02*
X142300000Y-109825000D01*
X132830000Y-94870000D02*
X132830000Y-107570000D01*
X132830000Y-107570000D02*
X135370000Y-107570000D01*
X135370000Y-107570000D02*
X135370000Y-94870000D01*
X132550000Y-92050000D02*
X132550000Y-93600000D01*
X132830000Y-94870000D02*
X135370000Y-94870000D01*
X135650000Y-93600000D02*
X135650000Y-92050000D01*
X135650000Y-92050000D02*
X132550000Y-92050000D01*
D11*
X161157143Y-90593429D02*
X161157143Y-91079143D01*
X161128571Y-91136286D01*
X161100000Y-91164857D01*
X161042857Y-91193429D01*
X160928571Y-91193429D01*
X160871429Y-91164857D01*
X160842857Y-91136286D01*
X160814286Y-91079143D01*
X160814286Y-90593429D01*
X160585715Y-90593429D02*
X160214286Y-90593429D01*
X160414286Y-90822000D01*
X160328572Y-90822000D01*
X160271429Y-90850571D01*
X160242858Y-90879143D01*
X160214286Y-90936286D01*
X160214286Y-91079143D01*
X160242858Y-91136286D01*
X160271429Y-91164857D01*
X160328572Y-91193429D01*
X160500000Y-91193429D01*
X160557143Y-91164857D01*
X160585715Y-91136286D01*
X143350000Y-112814286D02*
X143378571Y-112842857D01*
X143464285Y-112871429D01*
X143521428Y-112871429D01*
X143607143Y-112842857D01*
X143664285Y-112785714D01*
X143692857Y-112728571D01*
X143721428Y-112614286D01*
X143721428Y-112528571D01*
X143692857Y-112414286D01*
X143664285Y-112357143D01*
X143607143Y-112300000D01*
X143521428Y-112271429D01*
X143464285Y-112271429D01*
X143378571Y-112300000D01*
X143350000Y-112328571D01*
X142778571Y-112871429D02*
X143121428Y-112871429D01*
X142950000Y-112871429D02*
X142950000Y-112271429D01*
X143007143Y-112357143D01*
X143064285Y-112414286D01*
X143121428Y-112442857D01*
X134000000Y-113364286D02*
X134028571Y-113392857D01*
X134114285Y-113421429D01*
X134171428Y-113421429D01*
X134257143Y-113392857D01*
X134314285Y-113335714D01*
X134342857Y-113278571D01*
X134371428Y-113164286D01*
X134371428Y-113078571D01*
X134342857Y-112964286D01*
X134314285Y-112907143D01*
X134257143Y-112850000D01*
X134171428Y-112821429D01*
X134114285Y-112821429D01*
X134028571Y-112850000D01*
X134000000Y-112878571D01*
X133771428Y-112878571D02*
X133742857Y-112850000D01*
X133685714Y-112821429D01*
X133542857Y-112821429D01*
X133485714Y-112850000D01*
X133457143Y-112878571D01*
X133428571Y-112935714D01*
X133428571Y-112992857D01*
X133457143Y-113078571D01*
X133800000Y-113421429D01*
X133428571Y-113421429D01*
X152200000Y-96464286D02*
X152228571Y-96492857D01*
X152314285Y-96521429D01*
X152371428Y-96521429D01*
X152457143Y-96492857D01*
X152514285Y-96435714D01*
X152542857Y-96378571D01*
X152571428Y-96264286D01*
X152571428Y-96178571D01*
X152542857Y-96064286D01*
X152514285Y-96007143D01*
X152457143Y-95950000D01*
X152371428Y-95921429D01*
X152314285Y-95921429D01*
X152228571Y-95950000D01*
X152200000Y-95978571D01*
X152000000Y-95921429D02*
X151628571Y-95921429D01*
X151828571Y-96150000D01*
X151742857Y-96150000D01*
X151685714Y-96178571D01*
X151657143Y-96207143D01*
X151628571Y-96264286D01*
X151628571Y-96407143D01*
X151657143Y-96464286D01*
X151685714Y-96492857D01*
X151742857Y-96521429D01*
X151914285Y-96521429D01*
X151971428Y-96492857D01*
X152000000Y-96464286D01*
X156350000Y-96464286D02*
X156378571Y-96492857D01*
X156464285Y-96521429D01*
X156521428Y-96521429D01*
X156607143Y-96492857D01*
X156664285Y-96435714D01*
X156692857Y-96378571D01*
X156721428Y-96264286D01*
X156721428Y-96178571D01*
X156692857Y-96064286D01*
X156664285Y-96007143D01*
X156607143Y-95950000D01*
X156521428Y-95921429D01*
X156464285Y-95921429D01*
X156378571Y-95950000D01*
X156350000Y-95978571D01*
X155835714Y-96121429D02*
X155835714Y-96521429D01*
X155978571Y-95892857D02*
X156121428Y-96321429D01*
X155750000Y-96321429D01*
X139350000Y-96464286D02*
X139378571Y-96492857D01*
X139464285Y-96521429D01*
X139521428Y-96521429D01*
X139607143Y-96492857D01*
X139664285Y-96435714D01*
X139692857Y-96378571D01*
X139721428Y-96264286D01*
X139721428Y-96178571D01*
X139692857Y-96064286D01*
X139664285Y-96007143D01*
X139607143Y-95950000D01*
X139521428Y-95921429D01*
X139464285Y-95921429D01*
X139378571Y-95950000D01*
X139350000Y-95978571D01*
X138807143Y-95921429D02*
X139092857Y-95921429D01*
X139121428Y-96207143D01*
X139092857Y-96178571D01*
X139035714Y-96150000D01*
X138892857Y-96150000D01*
X138835714Y-96178571D01*
X138807143Y-96207143D01*
X138778571Y-96264286D01*
X138778571Y-96407143D01*
X138807143Y-96464286D01*
X138835714Y-96492857D01*
X138892857Y-96521429D01*
X139035714Y-96521429D01*
X139092857Y-96492857D01*
X139121428Y-96464286D01*
X156800000Y-105164286D02*
X156828571Y-105192857D01*
X156914285Y-105221429D01*
X156971428Y-105221429D01*
X157057143Y-105192857D01*
X157114285Y-105135714D01*
X157142857Y-105078571D01*
X157171428Y-104964286D01*
X157171428Y-104878571D01*
X157142857Y-104764286D01*
X157114285Y-104707143D01*
X157057143Y-104650000D01*
X156971428Y-104621429D01*
X156914285Y-104621429D01*
X156828571Y-104650000D01*
X156800000Y-104678571D01*
X156285714Y-104621429D02*
X156400000Y-104621429D01*
X156457143Y-104650000D01*
X156485714Y-104678571D01*
X156542857Y-104764286D01*
X156571428Y-104878571D01*
X156571428Y-105107143D01*
X156542857Y-105164286D01*
X156514285Y-105192857D01*
X156457143Y-105221429D01*
X156342857Y-105221429D01*
X156285714Y-105192857D01*
X156257143Y-105164286D01*
X156228571Y-105107143D01*
X156228571Y-104964286D01*
X156257143Y-104907143D01*
X156285714Y-104878571D01*
X156342857Y-104850000D01*
X156457143Y-104850000D01*
X156514285Y-104878571D01*
X156542857Y-104907143D01*
X156571428Y-104964286D01*
X163914286Y-106950000D02*
X163942857Y-106921429D01*
X163971429Y-106835715D01*
X163971429Y-106778572D01*
X163942857Y-106692857D01*
X163885714Y-106635715D01*
X163828571Y-106607143D01*
X163714286Y-106578572D01*
X163628571Y-106578572D01*
X163514286Y-106607143D01*
X163457143Y-106635715D01*
X163400000Y-106692857D01*
X163371429Y-106778572D01*
X163371429Y-106835715D01*
X163400000Y-106921429D01*
X163428571Y-106950000D01*
X163371429Y-107150000D02*
X163371429Y-107550000D01*
X163971429Y-107292857D01*
X156800000Y-101014286D02*
X156828571Y-101042857D01*
X156914285Y-101071429D01*
X156971428Y-101071429D01*
X157057143Y-101042857D01*
X157114285Y-100985714D01*
X157142857Y-100928571D01*
X157171428Y-100814286D01*
X157171428Y-100728571D01*
X157142857Y-100614286D01*
X157114285Y-100557143D01*
X157057143Y-100500000D01*
X156971428Y-100471429D01*
X156914285Y-100471429D01*
X156828571Y-100500000D01*
X156800000Y-100528571D01*
X156457143Y-100728571D02*
X156514285Y-100700000D01*
X156542857Y-100671429D01*
X156571428Y-100614286D01*
X156571428Y-100585714D01*
X156542857Y-100528571D01*
X156514285Y-100500000D01*
X156457143Y-100471429D01*
X156342857Y-100471429D01*
X156285714Y-100500000D01*
X156257143Y-100528571D01*
X156228571Y-100585714D01*
X156228571Y-100614286D01*
X156257143Y-100671429D01*
X156285714Y-100700000D01*
X156342857Y-100728571D01*
X156457143Y-100728571D01*
X156514285Y-100757143D01*
X156542857Y-100785714D01*
X156571428Y-100842857D01*
X156571428Y-100957143D01*
X156542857Y-101014286D01*
X156514285Y-101042857D01*
X156457143Y-101071429D01*
X156342857Y-101071429D01*
X156285714Y-101042857D01*
X156257143Y-101014286D01*
X156228571Y-100957143D01*
X156228571Y-100842857D01*
X156257143Y-100785714D01*
X156285714Y-100757143D01*
X156342857Y-100728571D01*
X163914286Y-108800000D02*
X163942857Y-108771429D01*
X163971429Y-108685715D01*
X163971429Y-108628572D01*
X163942857Y-108542857D01*
X163885714Y-108485715D01*
X163828571Y-108457143D01*
X163714286Y-108428572D01*
X163628571Y-108428572D01*
X163514286Y-108457143D01*
X163457143Y-108485715D01*
X163400000Y-108542857D01*
X163371429Y-108628572D01*
X163371429Y-108685715D01*
X163400000Y-108771429D01*
X163428571Y-108800000D01*
X163971429Y-109085715D02*
X163971429Y-109200000D01*
X163942857Y-109257143D01*
X163914286Y-109285715D01*
X163828571Y-109342857D01*
X163714286Y-109371429D01*
X163485714Y-109371429D01*
X163428571Y-109342857D01*
X163400000Y-109314286D01*
X163371429Y-109257143D01*
X163371429Y-109142857D01*
X163400000Y-109085715D01*
X163428571Y-109057143D01*
X163485714Y-109028572D01*
X163628571Y-109028572D01*
X163685714Y-109057143D01*
X163714286Y-109085715D01*
X163742857Y-109142857D01*
X163742857Y-109257143D01*
X163714286Y-109314286D01*
X163685714Y-109342857D01*
X163628571Y-109371429D01*
X163914286Y-99264285D02*
X163942857Y-99235714D01*
X163971429Y-99150000D01*
X163971429Y-99092857D01*
X163942857Y-99007142D01*
X163885714Y-98950000D01*
X163828571Y-98921428D01*
X163714286Y-98892857D01*
X163628571Y-98892857D01*
X163514286Y-98921428D01*
X163457143Y-98950000D01*
X163400000Y-99007142D01*
X163371429Y-99092857D01*
X163371429Y-99150000D01*
X163400000Y-99235714D01*
X163428571Y-99264285D01*
X163971429Y-99835714D02*
X163971429Y-99492857D01*
X163971429Y-99664285D02*
X163371429Y-99664285D01*
X163457143Y-99607142D01*
X163514286Y-99550000D01*
X163542857Y-99492857D01*
X163371429Y-100207143D02*
X163371429Y-100264286D01*
X163400000Y-100321429D01*
X163428571Y-100350000D01*
X163485714Y-100378571D01*
X163600000Y-100407143D01*
X163742857Y-100407143D01*
X163857143Y-100378571D01*
X163914286Y-100350000D01*
X163942857Y-100321429D01*
X163971429Y-100264286D01*
X163971429Y-100207143D01*
X163942857Y-100150000D01*
X163914286Y-100121429D01*
X163857143Y-100092857D01*
X163742857Y-100064286D01*
X163600000Y-100064286D01*
X163485714Y-100092857D01*
X163428571Y-100121429D01*
X163400000Y-100150000D01*
X163371429Y-100207143D01*
X163914286Y-104814285D02*
X163942857Y-104785714D01*
X163971429Y-104700000D01*
X163971429Y-104642857D01*
X163942857Y-104557142D01*
X163885714Y-104500000D01*
X163828571Y-104471428D01*
X163714286Y-104442857D01*
X163628571Y-104442857D01*
X163514286Y-104471428D01*
X163457143Y-104500000D01*
X163400000Y-104557142D01*
X163371429Y-104642857D01*
X163371429Y-104700000D01*
X163400000Y-104785714D01*
X163428571Y-104814285D01*
X163971429Y-105385714D02*
X163971429Y-105042857D01*
X163971429Y-105214285D02*
X163371429Y-105214285D01*
X163457143Y-105157142D01*
X163514286Y-105100000D01*
X163542857Y-105042857D01*
X163428571Y-105614286D02*
X163400000Y-105642857D01*
X163371429Y-105700000D01*
X163371429Y-105842857D01*
X163400000Y-105900000D01*
X163428571Y-105928571D01*
X163485714Y-105957143D01*
X163542857Y-105957143D01*
X163628571Y-105928571D01*
X163971429Y-105585714D01*
X163971429Y-105957143D01*
X163914286Y-102964285D02*
X163942857Y-102935714D01*
X163971429Y-102850000D01*
X163971429Y-102792857D01*
X163942857Y-102707142D01*
X163885714Y-102650000D01*
X163828571Y-102621428D01*
X163714286Y-102592857D01*
X163628571Y-102592857D01*
X163514286Y-102621428D01*
X163457143Y-102650000D01*
X163400000Y-102707142D01*
X163371429Y-102792857D01*
X163371429Y-102850000D01*
X163400000Y-102935714D01*
X163428571Y-102964285D01*
X163971429Y-103535714D02*
X163971429Y-103192857D01*
X163971429Y-103364285D02*
X163371429Y-103364285D01*
X163457143Y-103307142D01*
X163514286Y-103250000D01*
X163542857Y-103192857D01*
X163371429Y-103735714D02*
X163371429Y-104107143D01*
X163600000Y-103907143D01*
X163600000Y-103992857D01*
X163628571Y-104050000D01*
X163657143Y-104078571D01*
X163714286Y-104107143D01*
X163857143Y-104107143D01*
X163914286Y-104078571D01*
X163942857Y-104050000D01*
X163971429Y-103992857D01*
X163971429Y-103821429D01*
X163942857Y-103764286D01*
X163914286Y-103735714D01*
X163914286Y-101114285D02*
X163942857Y-101085714D01*
X163971429Y-101000000D01*
X163971429Y-100942857D01*
X163942857Y-100857142D01*
X163885714Y-100800000D01*
X163828571Y-100771428D01*
X163714286Y-100742857D01*
X163628571Y-100742857D01*
X163514286Y-100771428D01*
X163457143Y-100800000D01*
X163400000Y-100857142D01*
X163371429Y-100942857D01*
X163371429Y-101000000D01*
X163400000Y-101085714D01*
X163428571Y-101114285D01*
X163971429Y-101685714D02*
X163971429Y-101342857D01*
X163971429Y-101514285D02*
X163371429Y-101514285D01*
X163457143Y-101457142D01*
X163514286Y-101400000D01*
X163542857Y-101342857D01*
X163571429Y-102200000D02*
X163971429Y-102200000D01*
X163342857Y-102057143D02*
X163771429Y-101914286D01*
X163771429Y-102285714D01*
X140835715Y-102414286D02*
X140864286Y-102442857D01*
X140950000Y-102471429D01*
X141007143Y-102471429D01*
X141092858Y-102442857D01*
X141150000Y-102385714D01*
X141178572Y-102328571D01*
X141207143Y-102214286D01*
X141207143Y-102128571D01*
X141178572Y-102014286D01*
X141150000Y-101957143D01*
X141092858Y-101900000D01*
X141007143Y-101871429D01*
X140950000Y-101871429D01*
X140864286Y-101900000D01*
X140835715Y-101928571D01*
X140264286Y-102471429D02*
X140607143Y-102471429D01*
X140435715Y-102471429D02*
X140435715Y-101871429D01*
X140492858Y-101957143D01*
X140550000Y-102014286D01*
X140607143Y-102042857D01*
X139721429Y-101871429D02*
X140007143Y-101871429D01*
X140035714Y-102157143D01*
X140007143Y-102128571D01*
X139950000Y-102100000D01*
X139807143Y-102100000D01*
X139750000Y-102128571D01*
X139721429Y-102157143D01*
X139692857Y-102214286D01*
X139692857Y-102357143D01*
X139721429Y-102414286D01*
X139750000Y-102442857D01*
X139807143Y-102471429D01*
X139950000Y-102471429D01*
X140007143Y-102442857D01*
X140035714Y-102414286D01*
X148335715Y-96464286D02*
X148364286Y-96492857D01*
X148450000Y-96521429D01*
X148507143Y-96521429D01*
X148592858Y-96492857D01*
X148650000Y-96435714D01*
X148678572Y-96378571D01*
X148707143Y-96264286D01*
X148707143Y-96178571D01*
X148678572Y-96064286D01*
X148650000Y-96007143D01*
X148592858Y-95950000D01*
X148507143Y-95921429D01*
X148450000Y-95921429D01*
X148364286Y-95950000D01*
X148335715Y-95978571D01*
X147764286Y-96521429D02*
X148107143Y-96521429D01*
X147935715Y-96521429D02*
X147935715Y-95921429D01*
X147992858Y-96007143D01*
X148050000Y-96064286D01*
X148107143Y-96092857D01*
X147250000Y-95921429D02*
X147364286Y-95921429D01*
X147421429Y-95950000D01*
X147450000Y-95978571D01*
X147507143Y-96064286D01*
X147535714Y-96178571D01*
X147535714Y-96407143D01*
X147507143Y-96464286D01*
X147478571Y-96492857D01*
X147421429Y-96521429D01*
X147307143Y-96521429D01*
X147250000Y-96492857D01*
X147221429Y-96464286D01*
X147192857Y-96407143D01*
X147192857Y-96264286D01*
X147221429Y-96207143D01*
X147250000Y-96178571D01*
X147307143Y-96150000D01*
X147421429Y-96150000D01*
X147478571Y-96178571D01*
X147507143Y-96207143D01*
X147535714Y-96264286D01*
X160785715Y-96464286D02*
X160814286Y-96492857D01*
X160900000Y-96521429D01*
X160957143Y-96521429D01*
X161042858Y-96492857D01*
X161100000Y-96435714D01*
X161128572Y-96378571D01*
X161157143Y-96264286D01*
X161157143Y-96178571D01*
X161128572Y-96064286D01*
X161100000Y-96007143D01*
X161042858Y-95950000D01*
X160957143Y-95921429D01*
X160900000Y-95921429D01*
X160814286Y-95950000D01*
X160785715Y-95978571D01*
X160214286Y-96521429D02*
X160557143Y-96521429D01*
X160385715Y-96521429D02*
X160385715Y-95921429D01*
X160442858Y-96007143D01*
X160500000Y-96064286D01*
X160557143Y-96092857D01*
X159871429Y-96178571D02*
X159928571Y-96150000D01*
X159957143Y-96121429D01*
X159985714Y-96064286D01*
X159985714Y-96035714D01*
X159957143Y-95978571D01*
X159928571Y-95950000D01*
X159871429Y-95921429D01*
X159757143Y-95921429D01*
X159700000Y-95950000D01*
X159671429Y-95978571D01*
X159642857Y-96035714D01*
X159642857Y-96064286D01*
X159671429Y-96121429D01*
X159700000Y-96150000D01*
X159757143Y-96178571D01*
X159871429Y-96178571D01*
X159928571Y-96207143D01*
X159957143Y-96235714D01*
X159985714Y-96292857D01*
X159985714Y-96407143D01*
X159957143Y-96464286D01*
X159928571Y-96492857D01*
X159871429Y-96521429D01*
X159757143Y-96521429D01*
X159700000Y-96492857D01*
X159671429Y-96464286D01*
X159642857Y-96407143D01*
X159642857Y-96292857D01*
X159671429Y-96235714D01*
X159700000Y-96207143D01*
X159757143Y-96178571D01*
X139135715Y-117114286D02*
X139164286Y-117142857D01*
X139250000Y-117171429D01*
X139307143Y-117171429D01*
X139392858Y-117142857D01*
X139450000Y-117085714D01*
X139478572Y-117028571D01*
X139507143Y-116914286D01*
X139507143Y-116828571D01*
X139478572Y-116714286D01*
X139450000Y-116657143D01*
X139392858Y-116600000D01*
X139307143Y-116571429D01*
X139250000Y-116571429D01*
X139164286Y-116600000D01*
X139135715Y-116628571D01*
X138564286Y-117171429D02*
X138907143Y-117171429D01*
X138735715Y-117171429D02*
X138735715Y-116571429D01*
X138792858Y-116657143D01*
X138850000Y-116714286D01*
X138907143Y-116742857D01*
X138278571Y-117171429D02*
X138164286Y-117171429D01*
X138107143Y-117142857D01*
X138078571Y-117114286D01*
X138021429Y-117028571D01*
X137992857Y-116914286D01*
X137992857Y-116685714D01*
X138021429Y-116628571D01*
X138050000Y-116600000D01*
X138107143Y-116571429D01*
X138221429Y-116571429D01*
X138278571Y-116600000D01*
X138307143Y-116628571D01*
X138335714Y-116685714D01*
X138335714Y-116828571D01*
X138307143Y-116885714D01*
X138278571Y-116914286D01*
X138221429Y-116942857D01*
X138107143Y-116942857D01*
X138050000Y-116914286D01*
X138021429Y-116885714D01*
X137992857Y-116828571D01*
X140835715Y-104314286D02*
X140864286Y-104342857D01*
X140950000Y-104371429D01*
X141007143Y-104371429D01*
X141092858Y-104342857D01*
X141150000Y-104285714D01*
X141178572Y-104228571D01*
X141207143Y-104114286D01*
X141207143Y-104028571D01*
X141178572Y-103914286D01*
X141150000Y-103857143D01*
X141092858Y-103800000D01*
X141007143Y-103771429D01*
X140950000Y-103771429D01*
X140864286Y-103800000D01*
X140835715Y-103828571D01*
X140607143Y-103828571D02*
X140578572Y-103800000D01*
X140521429Y-103771429D01*
X140378572Y-103771429D01*
X140321429Y-103800000D01*
X140292858Y-103828571D01*
X140264286Y-103885714D01*
X140264286Y-103942857D01*
X140292858Y-104028571D01*
X140635715Y-104371429D01*
X140264286Y-104371429D01*
X139892857Y-103771429D02*
X139835714Y-103771429D01*
X139778571Y-103800000D01*
X139750000Y-103828571D01*
X139721429Y-103885714D01*
X139692857Y-104000000D01*
X139692857Y-104142857D01*
X139721429Y-104257143D01*
X139750000Y-104314286D01*
X139778571Y-104342857D01*
X139835714Y-104371429D01*
X139892857Y-104371429D01*
X139950000Y-104342857D01*
X139978571Y-104314286D01*
X140007143Y-104257143D01*
X140035714Y-104142857D01*
X140035714Y-104000000D01*
X140007143Y-103885714D01*
X139978571Y-103828571D01*
X139950000Y-103800000D01*
X139892857Y-103771429D01*
X140835715Y-106214286D02*
X140864286Y-106242857D01*
X140950000Y-106271429D01*
X141007143Y-106271429D01*
X141092858Y-106242857D01*
X141150000Y-106185714D01*
X141178572Y-106128571D01*
X141207143Y-106014286D01*
X141207143Y-105928571D01*
X141178572Y-105814286D01*
X141150000Y-105757143D01*
X141092858Y-105700000D01*
X141007143Y-105671429D01*
X140950000Y-105671429D01*
X140864286Y-105700000D01*
X140835715Y-105728571D01*
X140607143Y-105728571D02*
X140578572Y-105700000D01*
X140521429Y-105671429D01*
X140378572Y-105671429D01*
X140321429Y-105700000D01*
X140292858Y-105728571D01*
X140264286Y-105785714D01*
X140264286Y-105842857D01*
X140292858Y-105928571D01*
X140635715Y-106271429D01*
X140264286Y-106271429D01*
X139692857Y-106271429D02*
X140035714Y-106271429D01*
X139864286Y-106271429D02*
X139864286Y-105671429D01*
X139921429Y-105757143D01*
X139978571Y-105814286D01*
X140035714Y-105842857D01*
X150742857Y-118071429D02*
X150742857Y-117471429D01*
X150600000Y-117471429D01*
X150514285Y-117500000D01*
X150457143Y-117557143D01*
X150428571Y-117614286D01*
X150400000Y-117728571D01*
X150400000Y-117814286D01*
X150428571Y-117928571D01*
X150457143Y-117985714D01*
X150514285Y-118042857D01*
X150600000Y-118071429D01*
X150742857Y-118071429D01*
X149828571Y-118071429D02*
X150171428Y-118071429D01*
X150000000Y-118071429D02*
X150000000Y-117471429D01*
X150057143Y-117557143D01*
X150114285Y-117614286D01*
X150171428Y-117642857D01*
X145292857Y-117921429D02*
X145292857Y-117321429D01*
X145150000Y-117321429D01*
X145064285Y-117350000D01*
X145007143Y-117407143D01*
X144978571Y-117464286D01*
X144950000Y-117578571D01*
X144950000Y-117664286D01*
X144978571Y-117778571D01*
X145007143Y-117835714D01*
X145064285Y-117892857D01*
X145150000Y-117921429D01*
X145292857Y-117921429D01*
X144721428Y-117378571D02*
X144692857Y-117350000D01*
X144635714Y-117321429D01*
X144492857Y-117321429D01*
X144435714Y-117350000D01*
X144407143Y-117378571D01*
X144378571Y-117435714D01*
X144378571Y-117492857D01*
X144407143Y-117578571D01*
X144750000Y-117921429D01*
X144378571Y-117921429D01*
X140685714Y-112621429D02*
X140685714Y-112021429D01*
X140057143Y-112564286D02*
X140085714Y-112592857D01*
X140171428Y-112621429D01*
X140228571Y-112621429D01*
X140314286Y-112592857D01*
X140371428Y-112535714D01*
X140400000Y-112478571D01*
X140428571Y-112364286D01*
X140428571Y-112278571D01*
X140400000Y-112164286D01*
X140371428Y-112107143D01*
X140314286Y-112050000D01*
X140228571Y-112021429D01*
X140171428Y-112021429D01*
X140085714Y-112050000D01*
X140057143Y-112078571D01*
X139485714Y-112621429D02*
X139828571Y-112621429D01*
X139657143Y-112621429D02*
X139657143Y-112021429D01*
X139714286Y-112107143D01*
X139771428Y-112164286D01*
X139828571Y-112192857D01*
X138850000Y-113921429D02*
X139050000Y-113635714D01*
X139192857Y-113921429D02*
X139192857Y-113321429D01*
X138964285Y-113321429D01*
X138907143Y-113350000D01*
X138878571Y-113378571D01*
X138850000Y-113435714D01*
X138850000Y-113521429D01*
X138878571Y-113578571D01*
X138907143Y-113607143D01*
X138964285Y-113635714D01*
X139192857Y-113635714D01*
X138621428Y-113378571D02*
X138592857Y-113350000D01*
X138535714Y-113321429D01*
X138392857Y-113321429D01*
X138335714Y-113350000D01*
X138307143Y-113378571D01*
X138278571Y-113435714D01*
X138278571Y-113492857D01*
X138307143Y-113578571D01*
X138650000Y-113921429D01*
X138278571Y-113921429D01*
X160050000Y-110421429D02*
X160250000Y-110135714D01*
X160392857Y-110421429D02*
X160392857Y-109821429D01*
X160164285Y-109821429D01*
X160107143Y-109850000D01*
X160078571Y-109878571D01*
X160050000Y-109935714D01*
X160050000Y-110021429D01*
X160078571Y-110078571D01*
X160107143Y-110107143D01*
X160164285Y-110135714D01*
X160392857Y-110135714D01*
X159850000Y-109821429D02*
X159478571Y-109821429D01*
X159678571Y-110050000D01*
X159592857Y-110050000D01*
X159535714Y-110078571D01*
X159507143Y-110107143D01*
X159478571Y-110164286D01*
X159478571Y-110307143D01*
X159507143Y-110364286D01*
X159535714Y-110392857D01*
X159592857Y-110421429D01*
X159764285Y-110421429D01*
X159821428Y-110392857D01*
X159850000Y-110364286D01*
X157900000Y-110421429D02*
X158100000Y-110135714D01*
X158242857Y-110421429D02*
X158242857Y-109821429D01*
X158014285Y-109821429D01*
X157957143Y-109850000D01*
X157928571Y-109878571D01*
X157900000Y-109935714D01*
X157900000Y-110021429D01*
X157928571Y-110078571D01*
X157957143Y-110107143D01*
X158014285Y-110135714D01*
X158242857Y-110135714D01*
X157385714Y-110021429D02*
X157385714Y-110421429D01*
X157528571Y-109792857D02*
X157671428Y-110221429D01*
X157300000Y-110221429D01*
X155750000Y-110421429D02*
X155950000Y-110135714D01*
X156092857Y-110421429D02*
X156092857Y-109821429D01*
X155864285Y-109821429D01*
X155807143Y-109850000D01*
X155778571Y-109878571D01*
X155750000Y-109935714D01*
X155750000Y-110021429D01*
X155778571Y-110078571D01*
X155807143Y-110107143D01*
X155864285Y-110135714D01*
X156092857Y-110135714D01*
X155235714Y-109821429D02*
X155350000Y-109821429D01*
X155407143Y-109850000D01*
X155435714Y-109878571D01*
X155492857Y-109964286D01*
X155521428Y-110078571D01*
X155521428Y-110307143D01*
X155492857Y-110364286D01*
X155464285Y-110392857D01*
X155407143Y-110421429D01*
X155292857Y-110421429D01*
X155235714Y-110392857D01*
X155207143Y-110364286D01*
X155178571Y-110307143D01*
X155178571Y-110164286D01*
X155207143Y-110107143D01*
X155235714Y-110078571D01*
X155292857Y-110050000D01*
X155407143Y-110050000D01*
X155464285Y-110078571D01*
X155492857Y-110107143D01*
X155521428Y-110164286D01*
X152850000Y-120346429D02*
X153050000Y-120060714D01*
X153192857Y-120346429D02*
X153192857Y-119746429D01*
X152964285Y-119746429D01*
X152907143Y-119775000D01*
X152878571Y-119803571D01*
X152850000Y-119860714D01*
X152850000Y-119946429D01*
X152878571Y-120003571D01*
X152907143Y-120032143D01*
X152964285Y-120060714D01*
X153192857Y-120060714D01*
X152650000Y-119746429D02*
X152250000Y-119746429D01*
X152507143Y-120346429D01*
X158100000Y-120521429D02*
X158300000Y-120235714D01*
X158442857Y-120521429D02*
X158442857Y-119921429D01*
X158214285Y-119921429D01*
X158157143Y-119950000D01*
X158128571Y-119978571D01*
X158100000Y-120035714D01*
X158100000Y-120121429D01*
X158128571Y-120178571D01*
X158157143Y-120207143D01*
X158214285Y-120235714D01*
X158442857Y-120235714D01*
X157757143Y-120178571D02*
X157814285Y-120150000D01*
X157842857Y-120121429D01*
X157871428Y-120064286D01*
X157871428Y-120035714D01*
X157842857Y-119978571D01*
X157814285Y-119950000D01*
X157757143Y-119921429D01*
X157642857Y-119921429D01*
X157585714Y-119950000D01*
X157557143Y-119978571D01*
X157528571Y-120035714D01*
X157528571Y-120064286D01*
X157557143Y-120121429D01*
X157585714Y-120150000D01*
X157642857Y-120178571D01*
X157757143Y-120178571D01*
X157814285Y-120207143D01*
X157842857Y-120235714D01*
X157871428Y-120292857D01*
X157871428Y-120407143D01*
X157842857Y-120464286D01*
X157814285Y-120492857D01*
X157757143Y-120521429D01*
X157642857Y-120521429D01*
X157585714Y-120492857D01*
X157557143Y-120464286D01*
X157528571Y-120407143D01*
X157528571Y-120292857D01*
X157557143Y-120235714D01*
X157585714Y-120207143D01*
X157642857Y-120178571D01*
X137750000Y-120421429D02*
X137950000Y-120135714D01*
X138092857Y-120421429D02*
X138092857Y-119821429D01*
X137864285Y-119821429D01*
X137807143Y-119850000D01*
X137778571Y-119878571D01*
X137750000Y-119935714D01*
X137750000Y-120021429D01*
X137778571Y-120078571D01*
X137807143Y-120107143D01*
X137864285Y-120135714D01*
X138092857Y-120135714D01*
X137464285Y-120421429D02*
X137350000Y-120421429D01*
X137292857Y-120392857D01*
X137264285Y-120364286D01*
X137207143Y-120278571D01*
X137178571Y-120164286D01*
X137178571Y-119935714D01*
X137207143Y-119878571D01*
X137235714Y-119850000D01*
X137292857Y-119821429D01*
X137407143Y-119821429D01*
X137464285Y-119850000D01*
X137492857Y-119878571D01*
X137521428Y-119935714D01*
X137521428Y-120078571D01*
X137492857Y-120135714D01*
X137464285Y-120164286D01*
X137407143Y-120192857D01*
X137292857Y-120192857D01*
X137235714Y-120164286D01*
X137207143Y-120135714D01*
X137178571Y-120078571D01*
X143985715Y-96521429D02*
X144185715Y-96235714D01*
X144328572Y-96521429D02*
X144328572Y-95921429D01*
X144100000Y-95921429D01*
X144042858Y-95950000D01*
X144014286Y-95978571D01*
X143985715Y-96035714D01*
X143985715Y-96121429D01*
X144014286Y-96178571D01*
X144042858Y-96207143D01*
X144100000Y-96235714D01*
X144328572Y-96235714D01*
X143414286Y-96521429D02*
X143757143Y-96521429D01*
X143585715Y-96521429D02*
X143585715Y-95921429D01*
X143642858Y-96007143D01*
X143700000Y-96064286D01*
X143757143Y-96092857D01*
X143042857Y-95921429D02*
X142985714Y-95921429D01*
X142928571Y-95950000D01*
X142900000Y-95978571D01*
X142871429Y-96035714D01*
X142842857Y-96150000D01*
X142842857Y-96292857D01*
X142871429Y-96407143D01*
X142900000Y-96464286D01*
X142928571Y-96492857D01*
X142985714Y-96521429D01*
X143042857Y-96521429D01*
X143100000Y-96492857D01*
X143128571Y-96464286D01*
X143157143Y-96407143D01*
X143185714Y-96292857D01*
X143185714Y-96150000D01*
X143157143Y-96035714D01*
X143128571Y-95978571D01*
X143100000Y-95950000D01*
X143042857Y-95921429D01*
X154257143Y-99271429D02*
X154257143Y-99757143D01*
X154228571Y-99814286D01*
X154200000Y-99842857D01*
X154142857Y-99871429D01*
X154028571Y-99871429D01*
X153971429Y-99842857D01*
X153942857Y-99814286D01*
X153914286Y-99757143D01*
X153914286Y-99271429D01*
X153314286Y-99871429D02*
X153657143Y-99871429D01*
X153485715Y-99871429D02*
X153485715Y-99271429D01*
X153542858Y-99357143D01*
X153600000Y-99414286D01*
X153657143Y-99442857D01*
X141142857Y-121871429D02*
X141000000Y-122471429D01*
X140885714Y-122042857D01*
X140771428Y-122471429D01*
X140628571Y-121871429D01*
X140085714Y-122471429D02*
X140428571Y-122471429D01*
X140257143Y-122471429D02*
X140257143Y-121871429D01*
X140314286Y-121957143D01*
X140371428Y-122014286D01*
X140428571Y-122042857D01*
X161942857Y-114971429D02*
X161800000Y-115571429D01*
X161685714Y-115142857D01*
X161571428Y-115571429D01*
X161428571Y-114971429D01*
X161228571Y-115028571D02*
X161200000Y-115000000D01*
X161142857Y-114971429D01*
X161000000Y-114971429D01*
X160942857Y-115000000D01*
X160914286Y-115028571D01*
X160885714Y-115085714D01*
X160885714Y-115142857D01*
X160914286Y-115228571D01*
X161257143Y-115571429D01*
X160885714Y-115571429D01*
X156992857Y-114971429D02*
X156850000Y-115571429D01*
X156735714Y-115142857D01*
X156621428Y-115571429D01*
X156478571Y-114971429D01*
X156307143Y-114971429D02*
X155935714Y-114971429D01*
X156135714Y-115200000D01*
X156050000Y-115200000D01*
X155992857Y-115228571D01*
X155964286Y-115257143D01*
X155935714Y-115314286D01*
X155935714Y-115457143D01*
X155964286Y-115514286D01*
X155992857Y-115542857D01*
X156050000Y-115571429D01*
X156221428Y-115571429D01*
X156278571Y-115542857D01*
X156307143Y-115514286D01*
X143392857Y-123121429D02*
X143250000Y-123721429D01*
X143135714Y-123292857D01*
X143021428Y-123721429D01*
X142878571Y-123121429D01*
X142392857Y-123321429D02*
X142392857Y-123721429D01*
X142535714Y-123092857D02*
X142678571Y-123521429D01*
X142307143Y-123521429D01*
X136142857Y-109171429D02*
X136000000Y-109771429D01*
X135885714Y-109342857D01*
X135771428Y-109771429D01*
X135628571Y-109171429D01*
X135114286Y-109171429D02*
X135400000Y-109171429D01*
X135428571Y-109457143D01*
X135400000Y-109428571D01*
X135342857Y-109400000D01*
X135200000Y-109400000D01*
X135142857Y-109428571D01*
X135114286Y-109457143D01*
X135085714Y-109514286D01*
X135085714Y-109657143D01*
X135114286Y-109714286D01*
X135142857Y-109742857D01*
X135200000Y-109771429D01*
X135342857Y-109771429D01*
X135400000Y-109742857D01*
X135428571Y-109714286D01*
X163142857Y-110821429D02*
X163000000Y-111421429D01*
X162885714Y-110992857D01*
X162771428Y-111421429D01*
X162628571Y-110821429D01*
X162142857Y-110821429D02*
X162257143Y-110821429D01*
X162314286Y-110850000D01*
X162342857Y-110878571D01*
X162400000Y-110964286D01*
X162428571Y-111078571D01*
X162428571Y-111307143D01*
X162400000Y-111364286D01*
X162371428Y-111392857D01*
X162314286Y-111421429D01*
X162200000Y-111421429D01*
X162142857Y-111392857D01*
X162114286Y-111364286D01*
X162085714Y-111307143D01*
X162085714Y-111164286D01*
X162114286Y-111107143D01*
X162142857Y-111078571D01*
X162200000Y-111050000D01*
X162314286Y-111050000D01*
X162371428Y-111078571D01*
X162400000Y-111107143D01*
X162428571Y-111164286D01*
X145342857Y-113921429D02*
X145200000Y-114521429D01*
X145085714Y-114092857D01*
X144971428Y-114521429D01*
X144828571Y-113921429D01*
X144657143Y-113921429D02*
X144257143Y-113921429D01*
X144514286Y-114521429D01*
X135642857Y-91721429D02*
X135642857Y-91121429D01*
X135300000Y-91721429D02*
X135557143Y-91378571D01*
X135300000Y-91121429D02*
X135642857Y-91464286D01*
X135071428Y-91178571D02*
X135042857Y-91150000D01*
X134985714Y-91121429D01*
X134842857Y-91121429D01*
X134785714Y-91150000D01*
X134757143Y-91178571D01*
X134728571Y-91235714D01*
X134728571Y-91292857D01*
X134757143Y-91378571D01*
X135100000Y-91721429D01*
X134728571Y-91721429D01*
M02*
