%TF.GenerationSoftware,KiCad,Pcbnew,4.0.5+dfsg1-4~bpo8+1*%
%TF.CreationDate,2018-03-09T15:57:01-03:00*%
%TF.ProjectId,treasure,74726561737572652E6B696361645F70,rev?*%
%TF.FileFunction,Copper,L1,Top,Signal*%
%FSLAX46Y46*%
G04 Gerber Fmt 4.6, Leading zero omitted, Abs format (unit mm)*
G04 Created by KiCad (PCBNEW 4.0.5+dfsg1-4~bpo8+1) date Fri Mar  9 15:57:01 2018*
%MOMM*%
%LPD*%
G01*
G04 APERTURE LIST*
%ADD10C,0.254000*%
%ADD11R,2.200000X1.800000*%
%ADD12R,2.100000X2.700000*%
%ADD13C,2.032000*%
%ADD14R,1.645000X1.550000*%
%ADD15R,0.400000X2.350000*%
%ADD16O,1.250000X1.850000*%
%ADD17R,1.500000X1.550000*%
%ADD18C,0.600000*%
%ADD19C,0.250000*%
G04 APERTURE END LIST*
D10*
D11*
X136700000Y-113250000D03*
X143300000Y-113250000D03*
X136700000Y-116950000D03*
X143300000Y-116950000D03*
X153700000Y-113250000D03*
X160300000Y-113250000D03*
X153700000Y-116950000D03*
X160300000Y-116950000D03*
D12*
X150050000Y-115300000D03*
X150050000Y-110000000D03*
X146950000Y-110000000D03*
X146950000Y-115300000D03*
D13*
X134100000Y-93600000D03*
X134100000Y-96140000D03*
X134100000Y-98680000D03*
X134100000Y-101220000D03*
X134100000Y-103760000D03*
X134100000Y-106300000D03*
D14*
X144624500Y-123800000D03*
D15*
X148500000Y-120600000D03*
X147850000Y-120600000D03*
X147200000Y-120600000D03*
X149150000Y-120600000D03*
X149800000Y-120600000D03*
D16*
X151000000Y-121100000D03*
X146000000Y-121100000D03*
D14*
X152375500Y-123800000D03*
D17*
X147500000Y-123800000D03*
X149500000Y-123800000D03*
D18*
X141200000Y-99100000D03*
X142050000Y-101050000D03*
X138600000Y-107400000D03*
X145400000Y-101500000D03*
X137700000Y-91450000D03*
X143400000Y-99250000D03*
X153050000Y-92000000D03*
X153050000Y-90100000D03*
X158500000Y-107650000D03*
X156200000Y-109950000D03*
X156725000Y-121175000D03*
X150925000Y-119375000D03*
X133450000Y-117300000D03*
X148350000Y-107500000D03*
X154950000Y-115200000D03*
X143300000Y-114850000D03*
X143750000Y-119850000D03*
X136550000Y-98800000D03*
X136550000Y-96900000D03*
X145250000Y-113800000D03*
X155550000Y-120000000D03*
X156450000Y-103350000D03*
X163850000Y-103350000D03*
X159750000Y-94350000D03*
X159750000Y-91050000D03*
X150950000Y-91050000D03*
X139050000Y-91850000D03*
X156350000Y-104450000D03*
X152750000Y-109750000D03*
X138400000Y-120450000D03*
X146950000Y-108000000D03*
X145150000Y-109250000D03*
X152500000Y-119050000D03*
X148500000Y-117750000D03*
X155900000Y-116150000D03*
X147200000Y-118700000D03*
X136700000Y-95150000D03*
X151850000Y-106450000D03*
X136350000Y-99950000D03*
X151150000Y-104750000D03*
X149250000Y-106300000D03*
X135600000Y-108900000D03*
X156150000Y-106400000D03*
X162700000Y-117650000D03*
X133950000Y-112000000D03*
X135950000Y-110400000D03*
X136450000Y-107400000D03*
X148050000Y-105600000D03*
X144350000Y-104900000D03*
X162600000Y-115150000D03*
X150250000Y-91900000D03*
X150750000Y-103100000D03*
X146750000Y-91050000D03*
X146750000Y-102600000D03*
X146050000Y-91900000D03*
X146050000Y-103350000D03*
X148850000Y-91900000D03*
X149250000Y-102350000D03*
X149550000Y-91050000D03*
X149750000Y-101600000D03*
D19*
X141200000Y-98400000D02*
X141200000Y-99100000D01*
X138600000Y-106750000D02*
X138600000Y-107400000D01*
X142050000Y-101050000D02*
X140900000Y-101050000D01*
X140900000Y-101050000D02*
X138600000Y-103350000D01*
X138600000Y-103350000D02*
X138600000Y-106750000D01*
X143800000Y-100750000D02*
X143800000Y-100800000D01*
X143400000Y-99250000D02*
X143800000Y-99650000D01*
X143800000Y-99650000D02*
X143800000Y-100750000D01*
X144500000Y-101500000D02*
X145400000Y-101500000D01*
X143800000Y-100800000D02*
X144500000Y-101500000D01*
X137700000Y-96450000D02*
X137700000Y-91450000D01*
X139650000Y-98400000D02*
X137700000Y-96450000D01*
X142550000Y-98400000D02*
X141200000Y-98400000D01*
X141200000Y-98400000D02*
X139650000Y-98400000D01*
X143400000Y-99250000D02*
X142550000Y-98400000D01*
X153050000Y-90100000D02*
X153050000Y-92000000D01*
X156200000Y-109950000D02*
X158500000Y-107650000D01*
X155550000Y-120000000D02*
X156725000Y-121175000D01*
X149800000Y-120600000D02*
X149800000Y-119075000D01*
X150925000Y-119050000D02*
X150925000Y-119375000D01*
X150700000Y-118825000D02*
X150925000Y-119050000D01*
X150050000Y-118825000D02*
X150700000Y-118825000D01*
X149800000Y-119075000D02*
X150050000Y-118825000D01*
X134850000Y-116950000D02*
X133800000Y-116950000D01*
X136700000Y-116950000D02*
X134850000Y-116950000D01*
X133800000Y-116950000D02*
X133450000Y-117300000D01*
X154950000Y-115200000D02*
X154050000Y-115200000D01*
X153700000Y-115550000D02*
X153700000Y-116950000D01*
X154050000Y-115200000D02*
X153700000Y-115550000D01*
X148350000Y-107500000D02*
X149600000Y-107500000D01*
X150050000Y-107950000D02*
X150050000Y-110000000D01*
X149600000Y-107500000D02*
X150050000Y-107950000D01*
X154950000Y-115200000D02*
X156500000Y-115200000D01*
X158350000Y-116200000D02*
X158350000Y-116950000D01*
X157350000Y-115200000D02*
X158350000Y-116200000D01*
X156500000Y-115200000D02*
X157350000Y-115200000D01*
X155550000Y-120000000D02*
X155550000Y-119300000D01*
X155550000Y-119300000D02*
X157900000Y-116950000D01*
X157900000Y-116950000D02*
X158350000Y-116950000D01*
X158350000Y-116950000D02*
X160300000Y-116950000D01*
X143300000Y-114850000D02*
X143300000Y-115500000D01*
X143300000Y-115500000D02*
X143300000Y-116950000D01*
X143750000Y-119850000D02*
X143750000Y-119350000D01*
X143750000Y-119350000D02*
X143300000Y-118900000D01*
X143300000Y-118900000D02*
X143300000Y-116950000D01*
X136550000Y-98800000D02*
X136550000Y-96900000D01*
X146950000Y-115300000D02*
X145250000Y-115300000D01*
X145250000Y-115300000D02*
X145300000Y-115300000D01*
X145300000Y-115300000D02*
X145250000Y-115300000D01*
X145250000Y-113800000D02*
X145250000Y-115300000D01*
X145250000Y-115300000D02*
X145250000Y-116650000D01*
X144950000Y-116950000D02*
X143300000Y-116950000D01*
X145250000Y-116650000D02*
X144950000Y-116950000D01*
X146750000Y-115300000D02*
X146950000Y-115300000D01*
X143300000Y-116950000D02*
X136700000Y-116950000D01*
X149800000Y-120600000D02*
X149800000Y-120500000D01*
X143300000Y-116950000D02*
X143400000Y-116950000D01*
X146950000Y-115300000D02*
X146100000Y-115300000D01*
X153700000Y-116950000D02*
X153700000Y-116450000D01*
X150050000Y-110000000D02*
X150050000Y-109200000D01*
X163850000Y-103350000D02*
X156450000Y-103350000D01*
X159750000Y-91050000D02*
X159750000Y-94350000D01*
X150950000Y-91050000D02*
X150200000Y-90300000D01*
X150200000Y-90300000D02*
X140600000Y-90300000D01*
X140600000Y-90300000D02*
X139050000Y-91850000D01*
X156350000Y-104450000D02*
X153700000Y-104450000D01*
X153700000Y-104450000D02*
X153150000Y-104450000D01*
X153150000Y-104450000D02*
X152750000Y-104850000D01*
X152750000Y-104850000D02*
X152750000Y-109750000D01*
X146000000Y-121100000D02*
X146000000Y-121850000D01*
X145000000Y-122850000D02*
X145000000Y-123800000D01*
X146000000Y-121850000D02*
X145000000Y-122850000D01*
X147500000Y-123800000D02*
X145000000Y-123800000D01*
X149500000Y-123800000D02*
X147500000Y-123800000D01*
X152000000Y-123800000D02*
X149500000Y-123800000D01*
X139050000Y-121100000D02*
X138400000Y-120450000D01*
X139050000Y-121100000D02*
X146000000Y-121100000D01*
X146950000Y-110000000D02*
X146950000Y-108000000D01*
X150050000Y-113350000D02*
X150050000Y-115300000D01*
X149700000Y-113000000D02*
X145750000Y-113000000D01*
X150050000Y-113350000D02*
X149700000Y-113000000D01*
X145400000Y-113000000D02*
X145750000Y-113000000D01*
X145150000Y-112750000D02*
X145400000Y-113000000D01*
X145150000Y-111400000D02*
X145150000Y-112750000D01*
X145150000Y-109250000D02*
X145150000Y-111400000D01*
X151750000Y-122300000D02*
X151625000Y-122425000D01*
X147850000Y-120600000D02*
X147850000Y-122100000D01*
X152500000Y-121550000D02*
X152500000Y-119050000D01*
X151750000Y-122300000D02*
X152500000Y-121550000D01*
X147850000Y-122100000D02*
X148050000Y-122300000D01*
X148175000Y-122425000D02*
X148050000Y-122300000D01*
X151625000Y-122425000D02*
X148175000Y-122425000D01*
X148500000Y-117750000D02*
X148500000Y-118300000D01*
X148500000Y-120600000D02*
X148500000Y-118300000D01*
X148500000Y-118300000D02*
X149350000Y-118300000D01*
X155900000Y-116150000D02*
X155900000Y-117750000D01*
X155900000Y-117750000D02*
X155350000Y-118300000D01*
X155350000Y-118300000D02*
X149350000Y-118300000D01*
X147200000Y-118700000D02*
X147200000Y-120600000D01*
X151850000Y-105200000D02*
X151850000Y-106450000D01*
X137900000Y-89550000D02*
X151300000Y-89550000D01*
X136700000Y-90750000D02*
X137900000Y-89550000D01*
X136700000Y-92550000D02*
X136700000Y-90750000D01*
X136700000Y-95150000D02*
X136700000Y-92550000D01*
X151300000Y-89550000D02*
X151850000Y-90100000D01*
X151850000Y-90100000D02*
X151850000Y-105200000D01*
X139500000Y-99950000D02*
X142050000Y-99950000D01*
X136350000Y-99950000D02*
X139500000Y-99950000D01*
X142050000Y-99950000D02*
X142900000Y-100800000D01*
X145450000Y-104050000D02*
X144300000Y-104050000D01*
X145450000Y-104050000D02*
X150450000Y-104050000D01*
X150450000Y-104050000D02*
X151150000Y-104750000D01*
X143850000Y-101750000D02*
X142900000Y-100800000D01*
X143850000Y-103600000D02*
X143850000Y-101750000D01*
X144300000Y-104050000D02*
X143850000Y-103600000D01*
X144100000Y-109600000D02*
X144100000Y-107050000D01*
X146700000Y-106300000D02*
X149250000Y-106300000D01*
X136350000Y-108900000D02*
X137450000Y-110000000D01*
X137450000Y-110000000D02*
X143700000Y-110000000D01*
X143700000Y-110000000D02*
X144100000Y-109600000D01*
X135600000Y-108900000D02*
X136350000Y-108900000D01*
X144850000Y-106300000D02*
X146700000Y-106300000D01*
X144100000Y-107050000D02*
X144850000Y-106300000D01*
X156150000Y-106400000D02*
X161550000Y-106400000D01*
X161550000Y-106400000D02*
X163450000Y-108300000D01*
X163450000Y-108300000D02*
X163450000Y-116900000D01*
X162700000Y-117650000D02*
X163450000Y-116900000D01*
X136700000Y-113250000D02*
X134450000Y-113250000D01*
X133950000Y-112750000D02*
X133950000Y-112000000D01*
X134450000Y-113250000D02*
X133950000Y-112750000D01*
X136450000Y-107400000D02*
X136450000Y-108100000D01*
X136450000Y-108100000D02*
X136800000Y-108450000D01*
X136800000Y-108450000D02*
X137450000Y-108450000D01*
X137450000Y-108450000D02*
X142050000Y-108450000D01*
X142050000Y-108450000D02*
X142900000Y-107600000D01*
X142900000Y-107600000D02*
X142900000Y-106700000D01*
X142900000Y-106700000D02*
X144000000Y-105600000D01*
X144000000Y-105600000D02*
X148050000Y-105600000D01*
X136150000Y-110600000D02*
X136700000Y-111150000D01*
X136700000Y-111150000D02*
X136700000Y-113250000D01*
X136150000Y-110600000D02*
X135950000Y-110400000D01*
X143300000Y-113250000D02*
X136700000Y-113250000D01*
X160300000Y-113250000D02*
X153700000Y-113250000D01*
X151950000Y-112500000D02*
X151950000Y-108100000D01*
X151950000Y-108100000D02*
X150400000Y-106550000D01*
X150400000Y-106550000D02*
X150400000Y-105550000D01*
X150400000Y-105550000D02*
X149750000Y-104900000D01*
X149750000Y-104900000D02*
X144350000Y-104900000D01*
X152700000Y-113250000D02*
X151950000Y-112500000D01*
X153700000Y-113250000D02*
X152700000Y-113250000D01*
X160300000Y-113250000D02*
X160700000Y-113250000D01*
X160700000Y-113250000D02*
X162600000Y-115150000D01*
X150250000Y-101050000D02*
X150750000Y-101550000D01*
X150250000Y-91900000D02*
X150250000Y-101050000D01*
X150750000Y-101550000D02*
X150750000Y-102100000D01*
X150750000Y-102050000D02*
X150750000Y-102100000D01*
X150750000Y-103100000D02*
X150750000Y-102050000D01*
X146750000Y-101600000D02*
X146750000Y-102600000D01*
X146750000Y-91050000D02*
X146750000Y-92300000D01*
X146750000Y-92300000D02*
X146750000Y-101600000D01*
X146050000Y-91900000D02*
X146050000Y-96100000D01*
X146050000Y-96100000D02*
X146050000Y-101350000D01*
X146050000Y-101350000D02*
X146050000Y-102000000D01*
X146050000Y-103350000D02*
X146050000Y-102000000D01*
X148850000Y-101250000D02*
X148850000Y-101950000D01*
X148850000Y-91900000D02*
X148850000Y-101100000D01*
X148850000Y-101100000D02*
X148850000Y-101250000D01*
X148850000Y-101950000D02*
X149250000Y-102350000D01*
X149550000Y-101150000D02*
X149550000Y-101400000D01*
X149550000Y-91050000D02*
X149550000Y-101150000D01*
X149550000Y-101400000D02*
X149750000Y-101600000D01*
D10*
G36*
X164105960Y-91994064D02*
X164105895Y-118013130D01*
X153586464Y-124086565D01*
X153586464Y-123025000D01*
X153559897Y-122883810D01*
X153476454Y-122754135D01*
X153349134Y-122667141D01*
X153198000Y-122636536D01*
X152129056Y-122636536D01*
X152857796Y-121907796D01*
X152967483Y-121743638D01*
X153006000Y-121550000D01*
X153006000Y-119507123D01*
X153076987Y-119436259D01*
X153180882Y-119186054D01*
X153181118Y-118915135D01*
X153136025Y-118806000D01*
X155350000Y-118806000D01*
X155543638Y-118767483D01*
X155707796Y-118657796D01*
X156257796Y-118107796D01*
X156367483Y-117943638D01*
X156406000Y-117750000D01*
X156406000Y-117235750D01*
X158565000Y-117235750D01*
X158565000Y-117976310D01*
X158661673Y-118209699D01*
X158840302Y-118388327D01*
X159073691Y-118485000D01*
X160014250Y-118485000D01*
X160173000Y-118326250D01*
X160173000Y-117077000D01*
X158723750Y-117077000D01*
X158565000Y-117235750D01*
X156406000Y-117235750D01*
X156406000Y-116607123D01*
X156476987Y-116536259D01*
X156580882Y-116286054D01*
X156581118Y-116015135D01*
X156543334Y-115923690D01*
X158565000Y-115923690D01*
X158565000Y-116664250D01*
X158723750Y-116823000D01*
X160173000Y-116823000D01*
X160173000Y-115573750D01*
X160427000Y-115573750D01*
X160427000Y-116823000D01*
X161876250Y-116823000D01*
X162035000Y-116664250D01*
X162035000Y-115923690D01*
X161938327Y-115690301D01*
X161759698Y-115511673D01*
X161526309Y-115415000D01*
X160585750Y-115415000D01*
X160427000Y-115573750D01*
X160173000Y-115573750D01*
X160014250Y-115415000D01*
X159073691Y-115415000D01*
X158840302Y-115511673D01*
X158661673Y-115690301D01*
X158565000Y-115923690D01*
X156543334Y-115923690D01*
X156477661Y-115764748D01*
X156286259Y-115573013D01*
X156036054Y-115469118D01*
X155765135Y-115468882D01*
X155514748Y-115572339D01*
X155355368Y-115731442D01*
X155338327Y-115690301D01*
X155159698Y-115511673D01*
X154926309Y-115415000D01*
X153985750Y-115415000D01*
X153827000Y-115573750D01*
X153827000Y-116823000D01*
X153847000Y-116823000D01*
X153847000Y-117077000D01*
X153827000Y-117077000D01*
X153827000Y-117097000D01*
X153573000Y-117097000D01*
X153573000Y-117077000D01*
X152123750Y-117077000D01*
X151965000Y-117235750D01*
X151965000Y-117794000D01*
X149180962Y-117794000D01*
X149181118Y-117615135D01*
X149077661Y-117364748D01*
X148886259Y-117173013D01*
X148636054Y-117069118D01*
X148479044Y-117068981D01*
X148538327Y-117009698D01*
X148635000Y-116776309D01*
X148635000Y-116774699D01*
X148638103Y-116791190D01*
X148721546Y-116920865D01*
X148848866Y-117007859D01*
X149000000Y-117038464D01*
X151100000Y-117038464D01*
X151241190Y-117011897D01*
X151370865Y-116928454D01*
X151457859Y-116801134D01*
X151488464Y-116650000D01*
X151488464Y-115923690D01*
X151965000Y-115923690D01*
X151965000Y-116664250D01*
X152123750Y-116823000D01*
X153573000Y-116823000D01*
X153573000Y-115573750D01*
X153414250Y-115415000D01*
X152473691Y-115415000D01*
X152240302Y-115511673D01*
X152061673Y-115690301D01*
X151965000Y-115923690D01*
X151488464Y-115923690D01*
X151488464Y-113950000D01*
X151461897Y-113808810D01*
X151378454Y-113679135D01*
X151251134Y-113592141D01*
X151100000Y-113561536D01*
X150556000Y-113561536D01*
X150556000Y-113350000D01*
X150517483Y-113156362D01*
X150407796Y-112992204D01*
X150057796Y-112642204D01*
X149893638Y-112532517D01*
X149700000Y-112494000D01*
X145656000Y-112494000D01*
X145656000Y-111644406D01*
X145748866Y-111707859D01*
X145900000Y-111738464D01*
X148000000Y-111738464D01*
X148141190Y-111711897D01*
X148270865Y-111628454D01*
X148357859Y-111501134D01*
X148365000Y-111465870D01*
X148365000Y-111476309D01*
X148461673Y-111709698D01*
X148640301Y-111888327D01*
X148873690Y-111985000D01*
X149764250Y-111985000D01*
X149923000Y-111826250D01*
X149923000Y-110127000D01*
X149903000Y-110127000D01*
X149903000Y-109873000D01*
X149923000Y-109873000D01*
X149923000Y-108173750D01*
X149764250Y-108015000D01*
X148873690Y-108015000D01*
X148640301Y-108111673D01*
X148461673Y-108290302D01*
X148365000Y-108523691D01*
X148365000Y-108525301D01*
X148361897Y-108508810D01*
X148278454Y-108379135D01*
X148151134Y-108292141D01*
X148000000Y-108261536D01*
X147578777Y-108261536D01*
X147630882Y-108136054D01*
X147631118Y-107865135D01*
X147527661Y-107614748D01*
X147336259Y-107423013D01*
X147086054Y-107319118D01*
X146815135Y-107318882D01*
X146564748Y-107422339D01*
X146373013Y-107613741D01*
X146269118Y-107863946D01*
X146268882Y-108134865D01*
X146321221Y-108261536D01*
X145900000Y-108261536D01*
X145758810Y-108288103D01*
X145629135Y-108371546D01*
X145542141Y-108498866D01*
X145511536Y-108650000D01*
X145511536Y-108662747D01*
X145286054Y-108569118D01*
X145015135Y-108568882D01*
X144764748Y-108672339D01*
X144606000Y-108830811D01*
X144606000Y-107259592D01*
X145059592Y-106806000D01*
X148792877Y-106806000D01*
X148863741Y-106876987D01*
X149113946Y-106980882D01*
X149384865Y-106981118D01*
X149635252Y-106877661D01*
X149826987Y-106686259D01*
X149894000Y-106524875D01*
X149894000Y-106550000D01*
X149932517Y-106743638D01*
X150042204Y-106907796D01*
X151149408Y-108015000D01*
X150335750Y-108015000D01*
X150177000Y-108173750D01*
X150177000Y-109873000D01*
X150197000Y-109873000D01*
X150197000Y-110127000D01*
X150177000Y-110127000D01*
X150177000Y-111826250D01*
X150335750Y-111985000D01*
X151226310Y-111985000D01*
X151444000Y-111894830D01*
X151444000Y-112500000D01*
X151482517Y-112693638D01*
X151592204Y-112857796D01*
X152211536Y-113477128D01*
X152211536Y-114150000D01*
X152238103Y-114291190D01*
X152321546Y-114420865D01*
X152448866Y-114507859D01*
X152600000Y-114538464D01*
X154800000Y-114538464D01*
X154941190Y-114511897D01*
X155070865Y-114428454D01*
X155157859Y-114301134D01*
X155188464Y-114150000D01*
X155188464Y-113756000D01*
X158811536Y-113756000D01*
X158811536Y-114150000D01*
X158838103Y-114291190D01*
X158921546Y-114420865D01*
X159048866Y-114507859D01*
X159200000Y-114538464D01*
X161272872Y-114538464D01*
X161918969Y-115184561D01*
X161918882Y-115284865D01*
X162022339Y-115535252D01*
X162213741Y-115726987D01*
X162463946Y-115830882D01*
X162734865Y-115831118D01*
X162944000Y-115744706D01*
X162944000Y-116690408D01*
X162665439Y-116968969D01*
X162565135Y-116968882D01*
X162314748Y-117072339D01*
X162123013Y-117263741D01*
X162035000Y-117475698D01*
X162035000Y-117235750D01*
X161876250Y-117077000D01*
X160427000Y-117077000D01*
X160427000Y-118326250D01*
X160585750Y-118485000D01*
X161526309Y-118485000D01*
X161759698Y-118388327D01*
X161938327Y-118209699D01*
X162035000Y-117976310D01*
X162035000Y-117823874D01*
X162122339Y-118035252D01*
X162313741Y-118226987D01*
X162563946Y-118330882D01*
X162834865Y-118331118D01*
X163085252Y-118227661D01*
X163276987Y-118036259D01*
X163380882Y-117786054D01*
X163380970Y-117684622D01*
X163807796Y-117257796D01*
X163917483Y-117093638D01*
X163956000Y-116900000D01*
X163956000Y-108300000D01*
X163917483Y-108106362D01*
X163807796Y-107942204D01*
X161907796Y-106042204D01*
X161743638Y-105932517D01*
X161550000Y-105894000D01*
X156607123Y-105894000D01*
X156536259Y-105823013D01*
X156286054Y-105719118D01*
X156015135Y-105718882D01*
X155764748Y-105822339D01*
X155573013Y-106013741D01*
X155469118Y-106263946D01*
X155468882Y-106534865D01*
X155572339Y-106785252D01*
X155763741Y-106976987D01*
X156013946Y-107080882D01*
X156284865Y-107081118D01*
X156535252Y-106977661D01*
X156607038Y-106906000D01*
X161340408Y-106906000D01*
X162944000Y-108509592D01*
X162944000Y-114555465D01*
X162736054Y-114469118D01*
X162634622Y-114469030D01*
X161788464Y-113622872D01*
X161788464Y-112350000D01*
X161761897Y-112208810D01*
X161678454Y-112079135D01*
X161551134Y-111992141D01*
X161400000Y-111961536D01*
X159200000Y-111961536D01*
X159058810Y-111988103D01*
X158929135Y-112071546D01*
X158842141Y-112198866D01*
X158811536Y-112350000D01*
X158811536Y-112744000D01*
X155188464Y-112744000D01*
X155188464Y-112350000D01*
X155161897Y-112208810D01*
X155078454Y-112079135D01*
X154951134Y-111992141D01*
X154800000Y-111961536D01*
X152600000Y-111961536D01*
X152458810Y-111988103D01*
X152456000Y-111989911D01*
X152456000Y-110365297D01*
X152613946Y-110430882D01*
X152884865Y-110431118D01*
X153135252Y-110327661D01*
X153326987Y-110136259D01*
X153348327Y-110084865D01*
X155518882Y-110084865D01*
X155622339Y-110335252D01*
X155813741Y-110526987D01*
X156063946Y-110630882D01*
X156334865Y-110631118D01*
X156585252Y-110527661D01*
X156776987Y-110336259D01*
X156880882Y-110086054D01*
X156880970Y-109984622D01*
X158534561Y-108331031D01*
X158634865Y-108331118D01*
X158885252Y-108227661D01*
X159076987Y-108036259D01*
X159180882Y-107786054D01*
X159181118Y-107515135D01*
X159077661Y-107264748D01*
X158886259Y-107073013D01*
X158636054Y-106969118D01*
X158365135Y-106968882D01*
X158114748Y-107072339D01*
X157923013Y-107263741D01*
X157819118Y-107513946D01*
X157819030Y-107615378D01*
X156165439Y-109268969D01*
X156065135Y-109268882D01*
X155814748Y-109372339D01*
X155623013Y-109563741D01*
X155519118Y-109813946D01*
X155518882Y-110084865D01*
X153348327Y-110084865D01*
X153430882Y-109886054D01*
X153431118Y-109615135D01*
X153327661Y-109364748D01*
X153256000Y-109292962D01*
X153256000Y-105059592D01*
X153359592Y-104956000D01*
X155892877Y-104956000D01*
X155963741Y-105026987D01*
X156213946Y-105130882D01*
X156484865Y-105131118D01*
X156735252Y-105027661D01*
X156926987Y-104836259D01*
X157030882Y-104586054D01*
X157031118Y-104315135D01*
X156927661Y-104064748D01*
X156736259Y-103873013D01*
X156486054Y-103769118D01*
X156215135Y-103768882D01*
X155964748Y-103872339D01*
X155892962Y-103944000D01*
X153150000Y-103944000D01*
X152956362Y-103982517D01*
X152792204Y-104092204D01*
X152392204Y-104492204D01*
X152356000Y-104546387D01*
X152356000Y-90234865D01*
X152368882Y-90234865D01*
X152472339Y-90485252D01*
X152544000Y-90557038D01*
X152544000Y-91542877D01*
X152473013Y-91613741D01*
X152369118Y-91863946D01*
X152368882Y-92134865D01*
X152472339Y-92385252D01*
X152663741Y-92576987D01*
X152913946Y-92680882D01*
X153184865Y-92681118D01*
X153435252Y-92577661D01*
X153626987Y-92386259D01*
X153730882Y-92136054D01*
X153731118Y-91865135D01*
X153627661Y-91614748D01*
X153556000Y-91542962D01*
X153556000Y-90557123D01*
X153626987Y-90486259D01*
X153730882Y-90236054D01*
X153731118Y-89965135D01*
X153627661Y-89714748D01*
X153436259Y-89523013D01*
X153186054Y-89419118D01*
X152915135Y-89418882D01*
X152664748Y-89522339D01*
X152473013Y-89713741D01*
X152369118Y-89963946D01*
X152368882Y-90234865D01*
X152356000Y-90234865D01*
X152356000Y-90100000D01*
X152317483Y-89906362D01*
X152207796Y-89742204D01*
X151657796Y-89192204D01*
X151493638Y-89082517D01*
X151300000Y-89044000D01*
X138005943Y-89044000D01*
X139598484Y-88124540D01*
X157403706Y-88124540D01*
X164105960Y-91994064D01*
X164105960Y-91994064D01*
G37*
X164105960Y-91994064D02*
X164105895Y-118013130D01*
X153586464Y-124086565D01*
X153586464Y-123025000D01*
X153559897Y-122883810D01*
X153476454Y-122754135D01*
X153349134Y-122667141D01*
X153198000Y-122636536D01*
X152129056Y-122636536D01*
X152857796Y-121907796D01*
X152967483Y-121743638D01*
X153006000Y-121550000D01*
X153006000Y-119507123D01*
X153076987Y-119436259D01*
X153180882Y-119186054D01*
X153181118Y-118915135D01*
X153136025Y-118806000D01*
X155350000Y-118806000D01*
X155543638Y-118767483D01*
X155707796Y-118657796D01*
X156257796Y-118107796D01*
X156367483Y-117943638D01*
X156406000Y-117750000D01*
X156406000Y-117235750D01*
X158565000Y-117235750D01*
X158565000Y-117976310D01*
X158661673Y-118209699D01*
X158840302Y-118388327D01*
X159073691Y-118485000D01*
X160014250Y-118485000D01*
X160173000Y-118326250D01*
X160173000Y-117077000D01*
X158723750Y-117077000D01*
X158565000Y-117235750D01*
X156406000Y-117235750D01*
X156406000Y-116607123D01*
X156476987Y-116536259D01*
X156580882Y-116286054D01*
X156581118Y-116015135D01*
X156543334Y-115923690D01*
X158565000Y-115923690D01*
X158565000Y-116664250D01*
X158723750Y-116823000D01*
X160173000Y-116823000D01*
X160173000Y-115573750D01*
X160427000Y-115573750D01*
X160427000Y-116823000D01*
X161876250Y-116823000D01*
X162035000Y-116664250D01*
X162035000Y-115923690D01*
X161938327Y-115690301D01*
X161759698Y-115511673D01*
X161526309Y-115415000D01*
X160585750Y-115415000D01*
X160427000Y-115573750D01*
X160173000Y-115573750D01*
X160014250Y-115415000D01*
X159073691Y-115415000D01*
X158840302Y-115511673D01*
X158661673Y-115690301D01*
X158565000Y-115923690D01*
X156543334Y-115923690D01*
X156477661Y-115764748D01*
X156286259Y-115573013D01*
X156036054Y-115469118D01*
X155765135Y-115468882D01*
X155514748Y-115572339D01*
X155355368Y-115731442D01*
X155338327Y-115690301D01*
X155159698Y-115511673D01*
X154926309Y-115415000D01*
X153985750Y-115415000D01*
X153827000Y-115573750D01*
X153827000Y-116823000D01*
X153847000Y-116823000D01*
X153847000Y-117077000D01*
X153827000Y-117077000D01*
X153827000Y-117097000D01*
X153573000Y-117097000D01*
X153573000Y-117077000D01*
X152123750Y-117077000D01*
X151965000Y-117235750D01*
X151965000Y-117794000D01*
X149180962Y-117794000D01*
X149181118Y-117615135D01*
X149077661Y-117364748D01*
X148886259Y-117173013D01*
X148636054Y-117069118D01*
X148479044Y-117068981D01*
X148538327Y-117009698D01*
X148635000Y-116776309D01*
X148635000Y-116774699D01*
X148638103Y-116791190D01*
X148721546Y-116920865D01*
X148848866Y-117007859D01*
X149000000Y-117038464D01*
X151100000Y-117038464D01*
X151241190Y-117011897D01*
X151370865Y-116928454D01*
X151457859Y-116801134D01*
X151488464Y-116650000D01*
X151488464Y-115923690D01*
X151965000Y-115923690D01*
X151965000Y-116664250D01*
X152123750Y-116823000D01*
X153573000Y-116823000D01*
X153573000Y-115573750D01*
X153414250Y-115415000D01*
X152473691Y-115415000D01*
X152240302Y-115511673D01*
X152061673Y-115690301D01*
X151965000Y-115923690D01*
X151488464Y-115923690D01*
X151488464Y-113950000D01*
X151461897Y-113808810D01*
X151378454Y-113679135D01*
X151251134Y-113592141D01*
X151100000Y-113561536D01*
X150556000Y-113561536D01*
X150556000Y-113350000D01*
X150517483Y-113156362D01*
X150407796Y-112992204D01*
X150057796Y-112642204D01*
X149893638Y-112532517D01*
X149700000Y-112494000D01*
X145656000Y-112494000D01*
X145656000Y-111644406D01*
X145748866Y-111707859D01*
X145900000Y-111738464D01*
X148000000Y-111738464D01*
X148141190Y-111711897D01*
X148270865Y-111628454D01*
X148357859Y-111501134D01*
X148365000Y-111465870D01*
X148365000Y-111476309D01*
X148461673Y-111709698D01*
X148640301Y-111888327D01*
X148873690Y-111985000D01*
X149764250Y-111985000D01*
X149923000Y-111826250D01*
X149923000Y-110127000D01*
X149903000Y-110127000D01*
X149903000Y-109873000D01*
X149923000Y-109873000D01*
X149923000Y-108173750D01*
X149764250Y-108015000D01*
X148873690Y-108015000D01*
X148640301Y-108111673D01*
X148461673Y-108290302D01*
X148365000Y-108523691D01*
X148365000Y-108525301D01*
X148361897Y-108508810D01*
X148278454Y-108379135D01*
X148151134Y-108292141D01*
X148000000Y-108261536D01*
X147578777Y-108261536D01*
X147630882Y-108136054D01*
X147631118Y-107865135D01*
X147527661Y-107614748D01*
X147336259Y-107423013D01*
X147086054Y-107319118D01*
X146815135Y-107318882D01*
X146564748Y-107422339D01*
X146373013Y-107613741D01*
X146269118Y-107863946D01*
X146268882Y-108134865D01*
X146321221Y-108261536D01*
X145900000Y-108261536D01*
X145758810Y-108288103D01*
X145629135Y-108371546D01*
X145542141Y-108498866D01*
X145511536Y-108650000D01*
X145511536Y-108662747D01*
X145286054Y-108569118D01*
X145015135Y-108568882D01*
X144764748Y-108672339D01*
X144606000Y-108830811D01*
X144606000Y-107259592D01*
X145059592Y-106806000D01*
X148792877Y-106806000D01*
X148863741Y-106876987D01*
X149113946Y-106980882D01*
X149384865Y-106981118D01*
X149635252Y-106877661D01*
X149826987Y-106686259D01*
X149894000Y-106524875D01*
X149894000Y-106550000D01*
X149932517Y-106743638D01*
X150042204Y-106907796D01*
X151149408Y-108015000D01*
X150335750Y-108015000D01*
X150177000Y-108173750D01*
X150177000Y-109873000D01*
X150197000Y-109873000D01*
X150197000Y-110127000D01*
X150177000Y-110127000D01*
X150177000Y-111826250D01*
X150335750Y-111985000D01*
X151226310Y-111985000D01*
X151444000Y-111894830D01*
X151444000Y-112500000D01*
X151482517Y-112693638D01*
X151592204Y-112857796D01*
X152211536Y-113477128D01*
X152211536Y-114150000D01*
X152238103Y-114291190D01*
X152321546Y-114420865D01*
X152448866Y-114507859D01*
X152600000Y-114538464D01*
X154800000Y-114538464D01*
X154941190Y-114511897D01*
X155070865Y-114428454D01*
X155157859Y-114301134D01*
X155188464Y-114150000D01*
X155188464Y-113756000D01*
X158811536Y-113756000D01*
X158811536Y-114150000D01*
X158838103Y-114291190D01*
X158921546Y-114420865D01*
X159048866Y-114507859D01*
X159200000Y-114538464D01*
X161272872Y-114538464D01*
X161918969Y-115184561D01*
X161918882Y-115284865D01*
X162022339Y-115535252D01*
X162213741Y-115726987D01*
X162463946Y-115830882D01*
X162734865Y-115831118D01*
X162944000Y-115744706D01*
X162944000Y-116690408D01*
X162665439Y-116968969D01*
X162565135Y-116968882D01*
X162314748Y-117072339D01*
X162123013Y-117263741D01*
X162035000Y-117475698D01*
X162035000Y-117235750D01*
X161876250Y-117077000D01*
X160427000Y-117077000D01*
X160427000Y-118326250D01*
X160585750Y-118485000D01*
X161526309Y-118485000D01*
X161759698Y-118388327D01*
X161938327Y-118209699D01*
X162035000Y-117976310D01*
X162035000Y-117823874D01*
X162122339Y-118035252D01*
X162313741Y-118226987D01*
X162563946Y-118330882D01*
X162834865Y-118331118D01*
X163085252Y-118227661D01*
X163276987Y-118036259D01*
X163380882Y-117786054D01*
X163380970Y-117684622D01*
X163807796Y-117257796D01*
X163917483Y-117093638D01*
X163956000Y-116900000D01*
X163956000Y-108300000D01*
X163917483Y-108106362D01*
X163807796Y-107942204D01*
X161907796Y-106042204D01*
X161743638Y-105932517D01*
X161550000Y-105894000D01*
X156607123Y-105894000D01*
X156536259Y-105823013D01*
X156286054Y-105719118D01*
X156015135Y-105718882D01*
X155764748Y-105822339D01*
X155573013Y-106013741D01*
X155469118Y-106263946D01*
X155468882Y-106534865D01*
X155572339Y-106785252D01*
X155763741Y-106976987D01*
X156013946Y-107080882D01*
X156284865Y-107081118D01*
X156535252Y-106977661D01*
X156607038Y-106906000D01*
X161340408Y-106906000D01*
X162944000Y-108509592D01*
X162944000Y-114555465D01*
X162736054Y-114469118D01*
X162634622Y-114469030D01*
X161788464Y-113622872D01*
X161788464Y-112350000D01*
X161761897Y-112208810D01*
X161678454Y-112079135D01*
X161551134Y-111992141D01*
X161400000Y-111961536D01*
X159200000Y-111961536D01*
X159058810Y-111988103D01*
X158929135Y-112071546D01*
X158842141Y-112198866D01*
X158811536Y-112350000D01*
X158811536Y-112744000D01*
X155188464Y-112744000D01*
X155188464Y-112350000D01*
X155161897Y-112208810D01*
X155078454Y-112079135D01*
X154951134Y-111992141D01*
X154800000Y-111961536D01*
X152600000Y-111961536D01*
X152458810Y-111988103D01*
X152456000Y-111989911D01*
X152456000Y-110365297D01*
X152613946Y-110430882D01*
X152884865Y-110431118D01*
X153135252Y-110327661D01*
X153326987Y-110136259D01*
X153348327Y-110084865D01*
X155518882Y-110084865D01*
X155622339Y-110335252D01*
X155813741Y-110526987D01*
X156063946Y-110630882D01*
X156334865Y-110631118D01*
X156585252Y-110527661D01*
X156776987Y-110336259D01*
X156880882Y-110086054D01*
X156880970Y-109984622D01*
X158534561Y-108331031D01*
X158634865Y-108331118D01*
X158885252Y-108227661D01*
X159076987Y-108036259D01*
X159180882Y-107786054D01*
X159181118Y-107515135D01*
X159077661Y-107264748D01*
X158886259Y-107073013D01*
X158636054Y-106969118D01*
X158365135Y-106968882D01*
X158114748Y-107072339D01*
X157923013Y-107263741D01*
X157819118Y-107513946D01*
X157819030Y-107615378D01*
X156165439Y-109268969D01*
X156065135Y-109268882D01*
X155814748Y-109372339D01*
X155623013Y-109563741D01*
X155519118Y-109813946D01*
X155518882Y-110084865D01*
X153348327Y-110084865D01*
X153430882Y-109886054D01*
X153431118Y-109615135D01*
X153327661Y-109364748D01*
X153256000Y-109292962D01*
X153256000Y-105059592D01*
X153359592Y-104956000D01*
X155892877Y-104956000D01*
X155963741Y-105026987D01*
X156213946Y-105130882D01*
X156484865Y-105131118D01*
X156735252Y-105027661D01*
X156926987Y-104836259D01*
X157030882Y-104586054D01*
X157031118Y-104315135D01*
X156927661Y-104064748D01*
X156736259Y-103873013D01*
X156486054Y-103769118D01*
X156215135Y-103768882D01*
X155964748Y-103872339D01*
X155892962Y-103944000D01*
X153150000Y-103944000D01*
X152956362Y-103982517D01*
X152792204Y-104092204D01*
X152392204Y-104492204D01*
X152356000Y-104546387D01*
X152356000Y-90234865D01*
X152368882Y-90234865D01*
X152472339Y-90485252D01*
X152544000Y-90557038D01*
X152544000Y-91542877D01*
X152473013Y-91613741D01*
X152369118Y-91863946D01*
X152368882Y-92134865D01*
X152472339Y-92385252D01*
X152663741Y-92576987D01*
X152913946Y-92680882D01*
X153184865Y-92681118D01*
X153435252Y-92577661D01*
X153626987Y-92386259D01*
X153730882Y-92136054D01*
X153731118Y-91865135D01*
X153627661Y-91614748D01*
X153556000Y-91542962D01*
X153556000Y-90557123D01*
X153626987Y-90486259D01*
X153730882Y-90236054D01*
X153731118Y-89965135D01*
X153627661Y-89714748D01*
X153436259Y-89523013D01*
X153186054Y-89419118D01*
X152915135Y-89418882D01*
X152664748Y-89522339D01*
X152473013Y-89713741D01*
X152369118Y-89963946D01*
X152368882Y-90234865D01*
X152356000Y-90234865D01*
X152356000Y-90100000D01*
X152317483Y-89906362D01*
X152207796Y-89742204D01*
X151657796Y-89192204D01*
X151493638Y-89082517D01*
X151300000Y-89044000D01*
X138005943Y-89044000D01*
X139598484Y-88124540D01*
X157403706Y-88124540D01*
X164105960Y-91994064D01*
G36*
X136342204Y-90392204D02*
X136232517Y-90556362D01*
X136194000Y-90750000D01*
X136194000Y-94692877D01*
X136123013Y-94763741D01*
X136019118Y-95013946D01*
X136018882Y-95284865D01*
X136122339Y-95535252D01*
X136313741Y-95726987D01*
X136563946Y-95830882D01*
X136834865Y-95831118D01*
X137085252Y-95727661D01*
X137194000Y-95619102D01*
X137194000Y-96450000D01*
X137232517Y-96643638D01*
X137342204Y-96807796D01*
X139292204Y-98757796D01*
X139456362Y-98867483D01*
X139650000Y-98906000D01*
X140543179Y-98906000D01*
X140519118Y-98963946D01*
X140518882Y-99234865D01*
X140605294Y-99444000D01*
X136807123Y-99444000D01*
X136736259Y-99373013D01*
X136486054Y-99269118D01*
X136215135Y-99268882D01*
X135964748Y-99372339D01*
X135773013Y-99563741D01*
X135669118Y-99813946D01*
X135668882Y-100084865D01*
X135772339Y-100335252D01*
X135963741Y-100526987D01*
X136213946Y-100630882D01*
X136484865Y-100631118D01*
X136735252Y-100527661D01*
X136807038Y-100456000D01*
X141704292Y-100456000D01*
X141664748Y-100472339D01*
X141592962Y-100544000D01*
X140900000Y-100544000D01*
X140706362Y-100582517D01*
X140542204Y-100692204D01*
X138242204Y-102992204D01*
X138132517Y-103156362D01*
X138094000Y-103350000D01*
X138094000Y-106942877D01*
X138023013Y-107013741D01*
X137919118Y-107263946D01*
X137918882Y-107534865D01*
X138022339Y-107785252D01*
X138180811Y-107944000D01*
X137009592Y-107944000D01*
X136956000Y-107890408D01*
X136956000Y-107857123D01*
X137026987Y-107786259D01*
X137130882Y-107536054D01*
X137131118Y-107265135D01*
X137027661Y-107014748D01*
X136836259Y-106823013D01*
X136586054Y-106719118D01*
X136315135Y-106718882D01*
X136064748Y-106822339D01*
X135873013Y-107013741D01*
X135769118Y-107263946D01*
X135768882Y-107534865D01*
X135872339Y-107785252D01*
X135944000Y-107857038D01*
X135944000Y-108100000D01*
X135982517Y-108293638D01*
X136034302Y-108371139D01*
X135986259Y-108323013D01*
X135736054Y-108219118D01*
X135465135Y-108218882D01*
X135214748Y-108322339D01*
X135023013Y-108513741D01*
X134919118Y-108763946D01*
X134918882Y-109034865D01*
X135022339Y-109285252D01*
X135213741Y-109476987D01*
X135463946Y-109580882D01*
X135734865Y-109581118D01*
X135985252Y-109477661D01*
X136057038Y-109406000D01*
X136140408Y-109406000D01*
X137092204Y-110357796D01*
X137256362Y-110467483D01*
X137450000Y-110506000D01*
X143700000Y-110506000D01*
X143893638Y-110467483D01*
X144057796Y-110357796D01*
X144457796Y-109957796D01*
X144567483Y-109793638D01*
X144594560Y-109657512D01*
X144644000Y-109707038D01*
X144644000Y-112055594D01*
X144551134Y-111992141D01*
X144400000Y-111961536D01*
X142200000Y-111961536D01*
X142058810Y-111988103D01*
X141929135Y-112071546D01*
X141842141Y-112198866D01*
X141811536Y-112350000D01*
X141811536Y-112744000D01*
X138188464Y-112744000D01*
X138188464Y-112350000D01*
X138161897Y-112208810D01*
X138078454Y-112079135D01*
X137951134Y-111992141D01*
X137800000Y-111961536D01*
X137206000Y-111961536D01*
X137206000Y-111150000D01*
X137167483Y-110956362D01*
X137057796Y-110792204D01*
X136631031Y-110365439D01*
X136631118Y-110265135D01*
X136527661Y-110014748D01*
X136336259Y-109823013D01*
X136086054Y-109719118D01*
X135815135Y-109718882D01*
X135564748Y-109822339D01*
X135373013Y-110013741D01*
X135269118Y-110263946D01*
X135268882Y-110534865D01*
X135372339Y-110785252D01*
X135563741Y-110976987D01*
X135813946Y-111080882D01*
X135915378Y-111080970D01*
X136194000Y-111359592D01*
X136194000Y-111961536D01*
X135600000Y-111961536D01*
X135458810Y-111988103D01*
X135329135Y-112071546D01*
X135242141Y-112198866D01*
X135211536Y-112350000D01*
X135211536Y-112744000D01*
X134659592Y-112744000D01*
X134456000Y-112540408D01*
X134456000Y-112457123D01*
X134526987Y-112386259D01*
X134630882Y-112136054D01*
X134631118Y-111865135D01*
X134527661Y-111614748D01*
X134336259Y-111423013D01*
X134086054Y-111319118D01*
X133815135Y-111318882D01*
X133564748Y-111422339D01*
X133373013Y-111613741D01*
X133269118Y-111863946D01*
X133268882Y-112134865D01*
X133372339Y-112385252D01*
X133444000Y-112457038D01*
X133444000Y-112750000D01*
X133482517Y-112943638D01*
X133592204Y-113107796D01*
X134092204Y-113607796D01*
X134256362Y-113717483D01*
X134450000Y-113756000D01*
X135211536Y-113756000D01*
X135211536Y-114150000D01*
X135238103Y-114291190D01*
X135321546Y-114420865D01*
X135448866Y-114507859D01*
X135600000Y-114538464D01*
X137800000Y-114538464D01*
X137941190Y-114511897D01*
X138070865Y-114428454D01*
X138157859Y-114301134D01*
X138188464Y-114150000D01*
X138188464Y-113756000D01*
X141811536Y-113756000D01*
X141811536Y-114150000D01*
X141838103Y-114291190D01*
X141921546Y-114420865D01*
X142048866Y-114507859D01*
X142200000Y-114538464D01*
X144400000Y-114538464D01*
X144541190Y-114511897D01*
X144670865Y-114428454D01*
X144757859Y-114301134D01*
X144788464Y-114150000D01*
X144788464Y-113102199D01*
X144792204Y-113107796D01*
X145042204Y-113357796D01*
X145206362Y-113467483D01*
X145400000Y-113506000D01*
X145445975Y-113506000D01*
X145361673Y-113590302D01*
X145265000Y-113823691D01*
X145265000Y-115014250D01*
X145423750Y-115173000D01*
X146823000Y-115173000D01*
X146823000Y-115153000D01*
X147077000Y-115153000D01*
X147077000Y-115173000D01*
X147097000Y-115173000D01*
X147097000Y-115427000D01*
X147077000Y-115427000D01*
X147077000Y-117126250D01*
X147235750Y-117285000D01*
X148001891Y-117285000D01*
X147923013Y-117363741D01*
X147819118Y-117613946D01*
X147818882Y-117884865D01*
X147922339Y-118135252D01*
X147994000Y-118207038D01*
X147994000Y-119036536D01*
X147797634Y-119036536D01*
X147880882Y-118836054D01*
X147881118Y-118565135D01*
X147777661Y-118314748D01*
X147586259Y-118123013D01*
X147336054Y-118019118D01*
X147065135Y-118018882D01*
X146814748Y-118122339D01*
X146623013Y-118313741D01*
X146519118Y-118563946D01*
X146518882Y-118834865D01*
X146622339Y-119085252D01*
X146694000Y-119157038D01*
X146694000Y-119197968D01*
X146642141Y-119273866D01*
X146611536Y-119425000D01*
X146611536Y-119996372D01*
X146384980Y-119844991D01*
X146000000Y-119768414D01*
X145615020Y-119844991D01*
X145288651Y-120063065D01*
X145070577Y-120389434D01*
X145029886Y-120594000D01*
X139259592Y-120594000D01*
X139081031Y-120415439D01*
X139081118Y-120315135D01*
X138977661Y-120064748D01*
X138786259Y-119873013D01*
X138536054Y-119769118D01*
X138265135Y-119768882D01*
X138014748Y-119872339D01*
X137823013Y-120063741D01*
X137719118Y-120313946D01*
X137718882Y-120584865D01*
X137822339Y-120835252D01*
X137874380Y-120887383D01*
X132896181Y-118013219D01*
X132896181Y-117235750D01*
X134965000Y-117235750D01*
X134965000Y-117976310D01*
X135061673Y-118209699D01*
X135240302Y-118388327D01*
X135473691Y-118485000D01*
X136414250Y-118485000D01*
X136573000Y-118326250D01*
X136573000Y-117077000D01*
X136827000Y-117077000D01*
X136827000Y-118326250D01*
X136985750Y-118485000D01*
X137926309Y-118485000D01*
X138159698Y-118388327D01*
X138338327Y-118209699D01*
X138435000Y-117976310D01*
X138435000Y-117235750D01*
X141565000Y-117235750D01*
X141565000Y-117976310D01*
X141661673Y-118209699D01*
X141840302Y-118388327D01*
X142073691Y-118485000D01*
X143014250Y-118485000D01*
X143173000Y-118326250D01*
X143173000Y-117077000D01*
X143427000Y-117077000D01*
X143427000Y-118326250D01*
X143585750Y-118485000D01*
X144526309Y-118485000D01*
X144759698Y-118388327D01*
X144938327Y-118209699D01*
X145035000Y-117976310D01*
X145035000Y-117235750D01*
X144876250Y-117077000D01*
X143427000Y-117077000D01*
X143173000Y-117077000D01*
X141723750Y-117077000D01*
X141565000Y-117235750D01*
X138435000Y-117235750D01*
X138276250Y-117077000D01*
X136827000Y-117077000D01*
X136573000Y-117077000D01*
X135123750Y-117077000D01*
X134965000Y-117235750D01*
X132896181Y-117235750D01*
X132896181Y-115923690D01*
X134965000Y-115923690D01*
X134965000Y-116664250D01*
X135123750Y-116823000D01*
X136573000Y-116823000D01*
X136573000Y-115573750D01*
X136827000Y-115573750D01*
X136827000Y-116823000D01*
X138276250Y-116823000D01*
X138435000Y-116664250D01*
X138435000Y-115923690D01*
X141565000Y-115923690D01*
X141565000Y-116664250D01*
X141723750Y-116823000D01*
X143173000Y-116823000D01*
X143173000Y-115573750D01*
X143427000Y-115573750D01*
X143427000Y-116823000D01*
X144876250Y-116823000D01*
X145035000Y-116664250D01*
X145035000Y-115923690D01*
X144938327Y-115690301D01*
X144833776Y-115585750D01*
X145265000Y-115585750D01*
X145265000Y-116776309D01*
X145361673Y-117009698D01*
X145540301Y-117188327D01*
X145773690Y-117285000D01*
X146664250Y-117285000D01*
X146823000Y-117126250D01*
X146823000Y-115427000D01*
X145423750Y-115427000D01*
X145265000Y-115585750D01*
X144833776Y-115585750D01*
X144759698Y-115511673D01*
X144526309Y-115415000D01*
X143585750Y-115415000D01*
X143427000Y-115573750D01*
X143173000Y-115573750D01*
X143014250Y-115415000D01*
X142073691Y-115415000D01*
X141840302Y-115511673D01*
X141661673Y-115690301D01*
X141565000Y-115923690D01*
X138435000Y-115923690D01*
X138338327Y-115690301D01*
X138159698Y-115511673D01*
X137926309Y-115415000D01*
X136985750Y-115415000D01*
X136827000Y-115573750D01*
X136573000Y-115573750D01*
X136414250Y-115415000D01*
X135473691Y-115415000D01*
X135240302Y-115511673D01*
X135061673Y-115690301D01*
X134965000Y-115923690D01*
X132896181Y-115923690D01*
X132896174Y-107044765D01*
X132914990Y-107090303D01*
X133307630Y-107483629D01*
X133820900Y-107696757D01*
X134376661Y-107697242D01*
X134890303Y-107485010D01*
X135283629Y-107092370D01*
X135496757Y-106579100D01*
X135497242Y-106023339D01*
X135285010Y-105509697D01*
X134972991Y-105197133D01*
X134983880Y-105192622D01*
X135084502Y-104924107D01*
X134100000Y-103939605D01*
X133115498Y-104924107D01*
X133216120Y-105192622D01*
X133227634Y-105196909D01*
X132916371Y-105507630D01*
X132896173Y-105556271D01*
X132896173Y-104729617D01*
X132935893Y-104744502D01*
X133920395Y-103760000D01*
X134279605Y-103760000D01*
X135264107Y-104744502D01*
X135532622Y-104643880D01*
X135761816Y-104028358D01*
X135738014Y-103371981D01*
X135532622Y-102876120D01*
X135264107Y-102775498D01*
X134279605Y-103760000D01*
X133920395Y-103760000D01*
X132935893Y-102775498D01*
X132896172Y-102790383D01*
X132896171Y-101964758D01*
X132914990Y-102010303D01*
X133227009Y-102322867D01*
X133216120Y-102327378D01*
X133115498Y-102595893D01*
X134100000Y-103580395D01*
X135084502Y-102595893D01*
X134983880Y-102327378D01*
X134972366Y-102323091D01*
X135283629Y-102012370D01*
X135496757Y-101499100D01*
X135497242Y-100943339D01*
X135285010Y-100429697D01*
X134892370Y-100036371D01*
X134684488Y-99950051D01*
X134890303Y-99865010D01*
X135283629Y-99472370D01*
X135496757Y-98959100D01*
X135497242Y-98403339D01*
X135285010Y-97889697D01*
X134892370Y-97496371D01*
X134684488Y-97410051D01*
X134890303Y-97325010D01*
X135283629Y-96932370D01*
X135496757Y-96419100D01*
X135497242Y-95863339D01*
X135285010Y-95349697D01*
X134892370Y-94956371D01*
X134684488Y-94870051D01*
X134890303Y-94785010D01*
X135283629Y-94392370D01*
X135496757Y-93879100D01*
X135497242Y-93323339D01*
X135285010Y-92809697D01*
X134892370Y-92416371D01*
X134379100Y-92203243D01*
X133823339Y-92202758D01*
X133309697Y-92414990D01*
X132916371Y-92807630D01*
X132896166Y-92856290D01*
X132896165Y-91994152D01*
X137259372Y-89475036D01*
X136342204Y-90392204D01*
X136342204Y-90392204D01*
G37*
X136342204Y-90392204D02*
X136232517Y-90556362D01*
X136194000Y-90750000D01*
X136194000Y-94692877D01*
X136123013Y-94763741D01*
X136019118Y-95013946D01*
X136018882Y-95284865D01*
X136122339Y-95535252D01*
X136313741Y-95726987D01*
X136563946Y-95830882D01*
X136834865Y-95831118D01*
X137085252Y-95727661D01*
X137194000Y-95619102D01*
X137194000Y-96450000D01*
X137232517Y-96643638D01*
X137342204Y-96807796D01*
X139292204Y-98757796D01*
X139456362Y-98867483D01*
X139650000Y-98906000D01*
X140543179Y-98906000D01*
X140519118Y-98963946D01*
X140518882Y-99234865D01*
X140605294Y-99444000D01*
X136807123Y-99444000D01*
X136736259Y-99373013D01*
X136486054Y-99269118D01*
X136215135Y-99268882D01*
X135964748Y-99372339D01*
X135773013Y-99563741D01*
X135669118Y-99813946D01*
X135668882Y-100084865D01*
X135772339Y-100335252D01*
X135963741Y-100526987D01*
X136213946Y-100630882D01*
X136484865Y-100631118D01*
X136735252Y-100527661D01*
X136807038Y-100456000D01*
X141704292Y-100456000D01*
X141664748Y-100472339D01*
X141592962Y-100544000D01*
X140900000Y-100544000D01*
X140706362Y-100582517D01*
X140542204Y-100692204D01*
X138242204Y-102992204D01*
X138132517Y-103156362D01*
X138094000Y-103350000D01*
X138094000Y-106942877D01*
X138023013Y-107013741D01*
X137919118Y-107263946D01*
X137918882Y-107534865D01*
X138022339Y-107785252D01*
X138180811Y-107944000D01*
X137009592Y-107944000D01*
X136956000Y-107890408D01*
X136956000Y-107857123D01*
X137026987Y-107786259D01*
X137130882Y-107536054D01*
X137131118Y-107265135D01*
X137027661Y-107014748D01*
X136836259Y-106823013D01*
X136586054Y-106719118D01*
X136315135Y-106718882D01*
X136064748Y-106822339D01*
X135873013Y-107013741D01*
X135769118Y-107263946D01*
X135768882Y-107534865D01*
X135872339Y-107785252D01*
X135944000Y-107857038D01*
X135944000Y-108100000D01*
X135982517Y-108293638D01*
X136034302Y-108371139D01*
X135986259Y-108323013D01*
X135736054Y-108219118D01*
X135465135Y-108218882D01*
X135214748Y-108322339D01*
X135023013Y-108513741D01*
X134919118Y-108763946D01*
X134918882Y-109034865D01*
X135022339Y-109285252D01*
X135213741Y-109476987D01*
X135463946Y-109580882D01*
X135734865Y-109581118D01*
X135985252Y-109477661D01*
X136057038Y-109406000D01*
X136140408Y-109406000D01*
X137092204Y-110357796D01*
X137256362Y-110467483D01*
X137450000Y-110506000D01*
X143700000Y-110506000D01*
X143893638Y-110467483D01*
X144057796Y-110357796D01*
X144457796Y-109957796D01*
X144567483Y-109793638D01*
X144594560Y-109657512D01*
X144644000Y-109707038D01*
X144644000Y-112055594D01*
X144551134Y-111992141D01*
X144400000Y-111961536D01*
X142200000Y-111961536D01*
X142058810Y-111988103D01*
X141929135Y-112071546D01*
X141842141Y-112198866D01*
X141811536Y-112350000D01*
X141811536Y-112744000D01*
X138188464Y-112744000D01*
X138188464Y-112350000D01*
X138161897Y-112208810D01*
X138078454Y-112079135D01*
X137951134Y-111992141D01*
X137800000Y-111961536D01*
X137206000Y-111961536D01*
X137206000Y-111150000D01*
X137167483Y-110956362D01*
X137057796Y-110792204D01*
X136631031Y-110365439D01*
X136631118Y-110265135D01*
X136527661Y-110014748D01*
X136336259Y-109823013D01*
X136086054Y-109719118D01*
X135815135Y-109718882D01*
X135564748Y-109822339D01*
X135373013Y-110013741D01*
X135269118Y-110263946D01*
X135268882Y-110534865D01*
X135372339Y-110785252D01*
X135563741Y-110976987D01*
X135813946Y-111080882D01*
X135915378Y-111080970D01*
X136194000Y-111359592D01*
X136194000Y-111961536D01*
X135600000Y-111961536D01*
X135458810Y-111988103D01*
X135329135Y-112071546D01*
X135242141Y-112198866D01*
X135211536Y-112350000D01*
X135211536Y-112744000D01*
X134659592Y-112744000D01*
X134456000Y-112540408D01*
X134456000Y-112457123D01*
X134526987Y-112386259D01*
X134630882Y-112136054D01*
X134631118Y-111865135D01*
X134527661Y-111614748D01*
X134336259Y-111423013D01*
X134086054Y-111319118D01*
X133815135Y-111318882D01*
X133564748Y-111422339D01*
X133373013Y-111613741D01*
X133269118Y-111863946D01*
X133268882Y-112134865D01*
X133372339Y-112385252D01*
X133444000Y-112457038D01*
X133444000Y-112750000D01*
X133482517Y-112943638D01*
X133592204Y-113107796D01*
X134092204Y-113607796D01*
X134256362Y-113717483D01*
X134450000Y-113756000D01*
X135211536Y-113756000D01*
X135211536Y-114150000D01*
X135238103Y-114291190D01*
X135321546Y-114420865D01*
X135448866Y-114507859D01*
X135600000Y-114538464D01*
X137800000Y-114538464D01*
X137941190Y-114511897D01*
X138070865Y-114428454D01*
X138157859Y-114301134D01*
X138188464Y-114150000D01*
X138188464Y-113756000D01*
X141811536Y-113756000D01*
X141811536Y-114150000D01*
X141838103Y-114291190D01*
X141921546Y-114420865D01*
X142048866Y-114507859D01*
X142200000Y-114538464D01*
X144400000Y-114538464D01*
X144541190Y-114511897D01*
X144670865Y-114428454D01*
X144757859Y-114301134D01*
X144788464Y-114150000D01*
X144788464Y-113102199D01*
X144792204Y-113107796D01*
X145042204Y-113357796D01*
X145206362Y-113467483D01*
X145400000Y-113506000D01*
X145445975Y-113506000D01*
X145361673Y-113590302D01*
X145265000Y-113823691D01*
X145265000Y-115014250D01*
X145423750Y-115173000D01*
X146823000Y-115173000D01*
X146823000Y-115153000D01*
X147077000Y-115153000D01*
X147077000Y-115173000D01*
X147097000Y-115173000D01*
X147097000Y-115427000D01*
X147077000Y-115427000D01*
X147077000Y-117126250D01*
X147235750Y-117285000D01*
X148001891Y-117285000D01*
X147923013Y-117363741D01*
X147819118Y-117613946D01*
X147818882Y-117884865D01*
X147922339Y-118135252D01*
X147994000Y-118207038D01*
X147994000Y-119036536D01*
X147797634Y-119036536D01*
X147880882Y-118836054D01*
X147881118Y-118565135D01*
X147777661Y-118314748D01*
X147586259Y-118123013D01*
X147336054Y-118019118D01*
X147065135Y-118018882D01*
X146814748Y-118122339D01*
X146623013Y-118313741D01*
X146519118Y-118563946D01*
X146518882Y-118834865D01*
X146622339Y-119085252D01*
X146694000Y-119157038D01*
X146694000Y-119197968D01*
X146642141Y-119273866D01*
X146611536Y-119425000D01*
X146611536Y-119996372D01*
X146384980Y-119844991D01*
X146000000Y-119768414D01*
X145615020Y-119844991D01*
X145288651Y-120063065D01*
X145070577Y-120389434D01*
X145029886Y-120594000D01*
X139259592Y-120594000D01*
X139081031Y-120415439D01*
X139081118Y-120315135D01*
X138977661Y-120064748D01*
X138786259Y-119873013D01*
X138536054Y-119769118D01*
X138265135Y-119768882D01*
X138014748Y-119872339D01*
X137823013Y-120063741D01*
X137719118Y-120313946D01*
X137718882Y-120584865D01*
X137822339Y-120835252D01*
X137874380Y-120887383D01*
X132896181Y-118013219D01*
X132896181Y-117235750D01*
X134965000Y-117235750D01*
X134965000Y-117976310D01*
X135061673Y-118209699D01*
X135240302Y-118388327D01*
X135473691Y-118485000D01*
X136414250Y-118485000D01*
X136573000Y-118326250D01*
X136573000Y-117077000D01*
X136827000Y-117077000D01*
X136827000Y-118326250D01*
X136985750Y-118485000D01*
X137926309Y-118485000D01*
X138159698Y-118388327D01*
X138338327Y-118209699D01*
X138435000Y-117976310D01*
X138435000Y-117235750D01*
X141565000Y-117235750D01*
X141565000Y-117976310D01*
X141661673Y-118209699D01*
X141840302Y-118388327D01*
X142073691Y-118485000D01*
X143014250Y-118485000D01*
X143173000Y-118326250D01*
X143173000Y-117077000D01*
X143427000Y-117077000D01*
X143427000Y-118326250D01*
X143585750Y-118485000D01*
X144526309Y-118485000D01*
X144759698Y-118388327D01*
X144938327Y-118209699D01*
X145035000Y-117976310D01*
X145035000Y-117235750D01*
X144876250Y-117077000D01*
X143427000Y-117077000D01*
X143173000Y-117077000D01*
X141723750Y-117077000D01*
X141565000Y-117235750D01*
X138435000Y-117235750D01*
X138276250Y-117077000D01*
X136827000Y-117077000D01*
X136573000Y-117077000D01*
X135123750Y-117077000D01*
X134965000Y-117235750D01*
X132896181Y-117235750D01*
X132896181Y-115923690D01*
X134965000Y-115923690D01*
X134965000Y-116664250D01*
X135123750Y-116823000D01*
X136573000Y-116823000D01*
X136573000Y-115573750D01*
X136827000Y-115573750D01*
X136827000Y-116823000D01*
X138276250Y-116823000D01*
X138435000Y-116664250D01*
X138435000Y-115923690D01*
X141565000Y-115923690D01*
X141565000Y-116664250D01*
X141723750Y-116823000D01*
X143173000Y-116823000D01*
X143173000Y-115573750D01*
X143427000Y-115573750D01*
X143427000Y-116823000D01*
X144876250Y-116823000D01*
X145035000Y-116664250D01*
X145035000Y-115923690D01*
X144938327Y-115690301D01*
X144833776Y-115585750D01*
X145265000Y-115585750D01*
X145265000Y-116776309D01*
X145361673Y-117009698D01*
X145540301Y-117188327D01*
X145773690Y-117285000D01*
X146664250Y-117285000D01*
X146823000Y-117126250D01*
X146823000Y-115427000D01*
X145423750Y-115427000D01*
X145265000Y-115585750D01*
X144833776Y-115585750D01*
X144759698Y-115511673D01*
X144526309Y-115415000D01*
X143585750Y-115415000D01*
X143427000Y-115573750D01*
X143173000Y-115573750D01*
X143014250Y-115415000D01*
X142073691Y-115415000D01*
X141840302Y-115511673D01*
X141661673Y-115690301D01*
X141565000Y-115923690D01*
X138435000Y-115923690D01*
X138338327Y-115690301D01*
X138159698Y-115511673D01*
X137926309Y-115415000D01*
X136985750Y-115415000D01*
X136827000Y-115573750D01*
X136573000Y-115573750D01*
X136414250Y-115415000D01*
X135473691Y-115415000D01*
X135240302Y-115511673D01*
X135061673Y-115690301D01*
X134965000Y-115923690D01*
X132896181Y-115923690D01*
X132896174Y-107044765D01*
X132914990Y-107090303D01*
X133307630Y-107483629D01*
X133820900Y-107696757D01*
X134376661Y-107697242D01*
X134890303Y-107485010D01*
X135283629Y-107092370D01*
X135496757Y-106579100D01*
X135497242Y-106023339D01*
X135285010Y-105509697D01*
X134972991Y-105197133D01*
X134983880Y-105192622D01*
X135084502Y-104924107D01*
X134100000Y-103939605D01*
X133115498Y-104924107D01*
X133216120Y-105192622D01*
X133227634Y-105196909D01*
X132916371Y-105507630D01*
X132896173Y-105556271D01*
X132896173Y-104729617D01*
X132935893Y-104744502D01*
X133920395Y-103760000D01*
X134279605Y-103760000D01*
X135264107Y-104744502D01*
X135532622Y-104643880D01*
X135761816Y-104028358D01*
X135738014Y-103371981D01*
X135532622Y-102876120D01*
X135264107Y-102775498D01*
X134279605Y-103760000D01*
X133920395Y-103760000D01*
X132935893Y-102775498D01*
X132896172Y-102790383D01*
X132896171Y-101964758D01*
X132914990Y-102010303D01*
X133227009Y-102322867D01*
X133216120Y-102327378D01*
X133115498Y-102595893D01*
X134100000Y-103580395D01*
X135084502Y-102595893D01*
X134983880Y-102327378D01*
X134972366Y-102323091D01*
X135283629Y-102012370D01*
X135496757Y-101499100D01*
X135497242Y-100943339D01*
X135285010Y-100429697D01*
X134892370Y-100036371D01*
X134684488Y-99950051D01*
X134890303Y-99865010D01*
X135283629Y-99472370D01*
X135496757Y-98959100D01*
X135497242Y-98403339D01*
X135285010Y-97889697D01*
X134892370Y-97496371D01*
X134684488Y-97410051D01*
X134890303Y-97325010D01*
X135283629Y-96932370D01*
X135496757Y-96419100D01*
X135497242Y-95863339D01*
X135285010Y-95349697D01*
X134892370Y-94956371D01*
X134684488Y-94870051D01*
X134890303Y-94785010D01*
X135283629Y-94392370D01*
X135496757Y-93879100D01*
X135497242Y-93323339D01*
X135285010Y-92809697D01*
X134892370Y-92416371D01*
X134379100Y-92203243D01*
X133823339Y-92202758D01*
X133309697Y-92414990D01*
X132916371Y-92807630D01*
X132896166Y-92856290D01*
X132896165Y-91994152D01*
X137259372Y-89475036D01*
X136342204Y-90392204D01*
G36*
X149900000Y-120473000D02*
X149947000Y-120473000D01*
X149947000Y-120727000D01*
X149900000Y-120727000D01*
X149900000Y-120747000D01*
X149738464Y-120747000D01*
X149738464Y-120453000D01*
X149900000Y-120453000D01*
X149900000Y-120473000D01*
X149900000Y-120473000D01*
G37*
X149900000Y-120473000D02*
X149947000Y-120473000D01*
X149947000Y-120727000D01*
X149900000Y-120727000D01*
X149900000Y-120747000D01*
X149738464Y-120747000D01*
X149738464Y-120453000D01*
X149900000Y-120453000D01*
X149900000Y-120473000D01*
G36*
X151819118Y-118913946D02*
X151818882Y-119184865D01*
X151922339Y-119435252D01*
X151994000Y-119507038D01*
X151994000Y-120714086D01*
X151929423Y-120389434D01*
X151711349Y-120063065D01*
X151384980Y-119844991D01*
X151000000Y-119768414D01*
X150635000Y-119841017D01*
X150635000Y-119298690D01*
X150538327Y-119065301D01*
X150359698Y-118886673D01*
X150164936Y-118806000D01*
X151863941Y-118806000D01*
X151819118Y-118913946D01*
X151819118Y-118913946D01*
G37*
X151819118Y-118913946D02*
X151818882Y-119184865D01*
X151922339Y-119435252D01*
X151994000Y-119507038D01*
X151994000Y-120714086D01*
X151929423Y-120389434D01*
X151711349Y-120063065D01*
X151384980Y-119844991D01*
X151000000Y-119768414D01*
X150635000Y-119841017D01*
X150635000Y-119298690D01*
X150538327Y-119065301D01*
X150359698Y-118886673D01*
X150164936Y-118806000D01*
X151863941Y-118806000D01*
X151819118Y-118913946D01*
G36*
X151344000Y-90309592D02*
X151344000Y-102754292D01*
X151327661Y-102714748D01*
X151256000Y-102642962D01*
X151256000Y-101550000D01*
X151217483Y-101356362D01*
X151107796Y-101192204D01*
X150756000Y-100840408D01*
X150756000Y-92357123D01*
X150826987Y-92286259D01*
X150930882Y-92036054D01*
X150931118Y-91765135D01*
X150827661Y-91514748D01*
X150636259Y-91323013D01*
X150386054Y-91219118D01*
X150217214Y-91218971D01*
X150230882Y-91186054D01*
X150231118Y-90915135D01*
X150127661Y-90664748D01*
X149936259Y-90473013D01*
X149686054Y-90369118D01*
X149415135Y-90368882D01*
X149164748Y-90472339D01*
X148973013Y-90663741D01*
X148869118Y-90913946D01*
X148868882Y-91184865D01*
X148882998Y-91219028D01*
X148715135Y-91218882D01*
X148464748Y-91322339D01*
X148273013Y-91513741D01*
X148169118Y-91763946D01*
X148168882Y-92034865D01*
X148272339Y-92285252D01*
X148344000Y-92357038D01*
X148344000Y-101950000D01*
X148382517Y-102143638D01*
X148492204Y-102307796D01*
X148568969Y-102384561D01*
X148568882Y-102484865D01*
X148672339Y-102735252D01*
X148863741Y-102926987D01*
X149113946Y-103030882D01*
X149384865Y-103031118D01*
X149635252Y-102927661D01*
X149826987Y-102736259D01*
X149930882Y-102486054D01*
X149931077Y-102262024D01*
X150135252Y-102177661D01*
X150244000Y-102069102D01*
X150244000Y-102642877D01*
X150173013Y-102713741D01*
X150069118Y-102963946D01*
X150068882Y-103234865D01*
X150172339Y-103485252D01*
X150230985Y-103544000D01*
X146706821Y-103544000D01*
X146730882Y-103486054D01*
X146731061Y-103280984D01*
X146884865Y-103281118D01*
X147135252Y-103177661D01*
X147326987Y-102986259D01*
X147430882Y-102736054D01*
X147431118Y-102465135D01*
X147327661Y-102214748D01*
X147256000Y-102142962D01*
X147256000Y-91507123D01*
X147326987Y-91436259D01*
X147430882Y-91186054D01*
X147431118Y-90915135D01*
X147327661Y-90664748D01*
X147136259Y-90473013D01*
X146886054Y-90369118D01*
X146615135Y-90368882D01*
X146364748Y-90472339D01*
X146173013Y-90663741D01*
X146069118Y-90913946D01*
X146068882Y-91184865D01*
X146082998Y-91219028D01*
X145915135Y-91218882D01*
X145664748Y-91322339D01*
X145473013Y-91513741D01*
X145369118Y-91763946D01*
X145368882Y-92034865D01*
X145472339Y-92285252D01*
X145544000Y-92357038D01*
X145544000Y-100822417D01*
X145536054Y-100819118D01*
X145265135Y-100818882D01*
X145014748Y-100922339D01*
X144942962Y-100994000D01*
X144709592Y-100994000D01*
X144306000Y-100590408D01*
X144306000Y-99650000D01*
X144267483Y-99456362D01*
X144157796Y-99292204D01*
X144081031Y-99215439D01*
X144081118Y-99115135D01*
X143977661Y-98864748D01*
X143786259Y-98673013D01*
X143536054Y-98569118D01*
X143434622Y-98569030D01*
X142907796Y-98042204D01*
X142743638Y-97932517D01*
X142550000Y-97894000D01*
X139859592Y-97894000D01*
X138206000Y-96240408D01*
X138206000Y-91907123D01*
X138276987Y-91836259D01*
X138380882Y-91586054D01*
X138381118Y-91315135D01*
X138277661Y-91064748D01*
X138086259Y-90873013D01*
X137836054Y-90769118D01*
X137565135Y-90768882D01*
X137314748Y-90872339D01*
X137206000Y-90980898D01*
X137206000Y-90959592D01*
X138109592Y-90056000D01*
X151090408Y-90056000D01*
X151344000Y-90309592D01*
X151344000Y-90309592D01*
G37*
X151344000Y-90309592D02*
X151344000Y-102754292D01*
X151327661Y-102714748D01*
X151256000Y-102642962D01*
X151256000Y-101550000D01*
X151217483Y-101356362D01*
X151107796Y-101192204D01*
X150756000Y-100840408D01*
X150756000Y-92357123D01*
X150826987Y-92286259D01*
X150930882Y-92036054D01*
X150931118Y-91765135D01*
X150827661Y-91514748D01*
X150636259Y-91323013D01*
X150386054Y-91219118D01*
X150217214Y-91218971D01*
X150230882Y-91186054D01*
X150231118Y-90915135D01*
X150127661Y-90664748D01*
X149936259Y-90473013D01*
X149686054Y-90369118D01*
X149415135Y-90368882D01*
X149164748Y-90472339D01*
X148973013Y-90663741D01*
X148869118Y-90913946D01*
X148868882Y-91184865D01*
X148882998Y-91219028D01*
X148715135Y-91218882D01*
X148464748Y-91322339D01*
X148273013Y-91513741D01*
X148169118Y-91763946D01*
X148168882Y-92034865D01*
X148272339Y-92285252D01*
X148344000Y-92357038D01*
X148344000Y-101950000D01*
X148382517Y-102143638D01*
X148492204Y-102307796D01*
X148568969Y-102384561D01*
X148568882Y-102484865D01*
X148672339Y-102735252D01*
X148863741Y-102926987D01*
X149113946Y-103030882D01*
X149384865Y-103031118D01*
X149635252Y-102927661D01*
X149826987Y-102736259D01*
X149930882Y-102486054D01*
X149931077Y-102262024D01*
X150135252Y-102177661D01*
X150244000Y-102069102D01*
X150244000Y-102642877D01*
X150173013Y-102713741D01*
X150069118Y-102963946D01*
X150068882Y-103234865D01*
X150172339Y-103485252D01*
X150230985Y-103544000D01*
X146706821Y-103544000D01*
X146730882Y-103486054D01*
X146731061Y-103280984D01*
X146884865Y-103281118D01*
X147135252Y-103177661D01*
X147326987Y-102986259D01*
X147430882Y-102736054D01*
X147431118Y-102465135D01*
X147327661Y-102214748D01*
X147256000Y-102142962D01*
X147256000Y-91507123D01*
X147326987Y-91436259D01*
X147430882Y-91186054D01*
X147431118Y-90915135D01*
X147327661Y-90664748D01*
X147136259Y-90473013D01*
X146886054Y-90369118D01*
X146615135Y-90368882D01*
X146364748Y-90472339D01*
X146173013Y-90663741D01*
X146069118Y-90913946D01*
X146068882Y-91184865D01*
X146082998Y-91219028D01*
X145915135Y-91218882D01*
X145664748Y-91322339D01*
X145473013Y-91513741D01*
X145369118Y-91763946D01*
X145368882Y-92034865D01*
X145472339Y-92285252D01*
X145544000Y-92357038D01*
X145544000Y-100822417D01*
X145536054Y-100819118D01*
X145265135Y-100818882D01*
X145014748Y-100922339D01*
X144942962Y-100994000D01*
X144709592Y-100994000D01*
X144306000Y-100590408D01*
X144306000Y-99650000D01*
X144267483Y-99456362D01*
X144157796Y-99292204D01*
X144081031Y-99215439D01*
X144081118Y-99115135D01*
X143977661Y-98864748D01*
X143786259Y-98673013D01*
X143536054Y-98569118D01*
X143434622Y-98569030D01*
X142907796Y-98042204D01*
X142743638Y-97932517D01*
X142550000Y-97894000D01*
X139859592Y-97894000D01*
X138206000Y-96240408D01*
X138206000Y-91907123D01*
X138276987Y-91836259D01*
X138380882Y-91586054D01*
X138381118Y-91315135D01*
X138277661Y-91064748D01*
X138086259Y-90873013D01*
X137836054Y-90769118D01*
X137565135Y-90768882D01*
X137314748Y-90872339D01*
X137206000Y-90980898D01*
X137206000Y-90959592D01*
X138109592Y-90056000D01*
X151090408Y-90056000D01*
X151344000Y-90309592D01*
M02*
