%TF.GenerationSoftware,KiCad,Pcbnew,4.0.5+dfsg1-4~bpo8+1*%
%TF.CreationDate,2017-10-06T16:53:46-03:00*%
%TF.ProjectId,treasure,74726561737572652E6B696361645F70,rev?*%
%TF.FileFunction,Legend,Top*%
%FSLAX46Y46*%
G04 Gerber Fmt 4.6, Leading zero omitted, Abs format (unit mm)*
G04 Created by KiCad (PCBNEW 4.0.5+dfsg1-4~bpo8+1) date Fri Oct  6 16:53:46 2017*
%MOMM*%
%LPD*%
G01*
G04 APERTURE LIST*
%ADD10C,0.254000*%
%ADD11C,0.150000*%
%ADD12C,0.100000*%
%ADD13C,0.120000*%
G04 APERTURE END LIST*
D10*
D11*
X163507143Y-111311904D02*
X163554762Y-111359523D01*
X163602381Y-111502380D01*
X163602381Y-111597618D01*
X163554762Y-111740476D01*
X163459524Y-111835714D01*
X163364286Y-111883333D01*
X163173810Y-111930952D01*
X163030952Y-111930952D01*
X162840476Y-111883333D01*
X162745238Y-111835714D01*
X162650000Y-111740476D01*
X162602381Y-111597618D01*
X162602381Y-111502380D01*
X162650000Y-111359523D01*
X162697619Y-111311904D01*
X162602381Y-110692857D02*
X162602381Y-110502380D01*
X162650000Y-110407142D01*
X162745238Y-110311904D01*
X162935714Y-110264285D01*
X163269048Y-110264285D01*
X163459524Y-110311904D01*
X163554762Y-110407142D01*
X163602381Y-110502380D01*
X163602381Y-110692857D01*
X163554762Y-110788095D01*
X163459524Y-110883333D01*
X163269048Y-110930952D01*
X162935714Y-110930952D01*
X162745238Y-110883333D01*
X162650000Y-110788095D01*
X162602381Y-110692857D01*
X163602381Y-109835714D02*
X162602381Y-109835714D01*
X163602381Y-109359524D02*
X162602381Y-109359524D01*
X163602381Y-108788095D01*
X162602381Y-108788095D01*
X162602381Y-108407143D02*
X163602381Y-108169048D01*
X162888095Y-107978571D01*
X163602381Y-107788095D01*
X162602381Y-107550000D01*
X163602381Y-107169048D02*
X162602381Y-107169048D01*
X163554762Y-106740477D02*
X163602381Y-106597620D01*
X163602381Y-106359524D01*
X163554762Y-106264286D01*
X163507143Y-106216667D01*
X163411905Y-106169048D01*
X163316667Y-106169048D01*
X163221429Y-106216667D01*
X163173810Y-106264286D01*
X163126190Y-106359524D01*
X163078571Y-106550001D01*
X163030952Y-106645239D01*
X162983333Y-106692858D01*
X162888095Y-106740477D01*
X162792857Y-106740477D01*
X162697619Y-106692858D01*
X162650000Y-106645239D01*
X162602381Y-106550001D01*
X162602381Y-106311905D01*
X162650000Y-106169048D01*
X163078571Y-105740477D02*
X163078571Y-105407143D01*
X163602381Y-105264286D02*
X163602381Y-105740477D01*
X162602381Y-105740477D01*
X162602381Y-105264286D01*
X162602381Y-104216667D02*
X162602381Y-103645238D01*
X163602381Y-103930953D02*
X162602381Y-103930953D01*
X163602381Y-102740476D02*
X163126190Y-103073810D01*
X163602381Y-103311905D02*
X162602381Y-103311905D01*
X162602381Y-102930952D01*
X162650000Y-102835714D01*
X162697619Y-102788095D01*
X162792857Y-102740476D01*
X162935714Y-102740476D01*
X163030952Y-102788095D01*
X163078571Y-102835714D01*
X163126190Y-102930952D01*
X163126190Y-103311905D01*
X163078571Y-102311905D02*
X163078571Y-101978571D01*
X163602381Y-101835714D02*
X163602381Y-102311905D01*
X162602381Y-102311905D01*
X162602381Y-101835714D01*
X163316667Y-101454762D02*
X163316667Y-100978571D01*
X163602381Y-101550000D02*
X162602381Y-101216667D01*
X163602381Y-100883333D01*
X163554762Y-100597619D02*
X163602381Y-100454762D01*
X163602381Y-100216666D01*
X163554762Y-100121428D01*
X163507143Y-100073809D01*
X163411905Y-100026190D01*
X163316667Y-100026190D01*
X163221429Y-100073809D01*
X163173810Y-100121428D01*
X163126190Y-100216666D01*
X163078571Y-100407143D01*
X163030952Y-100502381D01*
X162983333Y-100550000D01*
X162888095Y-100597619D01*
X162792857Y-100597619D01*
X162697619Y-100550000D01*
X162650000Y-100502381D01*
X162602381Y-100407143D01*
X162602381Y-100169047D01*
X162650000Y-100026190D01*
X162602381Y-99597619D02*
X163411905Y-99597619D01*
X163507143Y-99550000D01*
X163554762Y-99502381D01*
X163602381Y-99407143D01*
X163602381Y-99216666D01*
X163554762Y-99121428D01*
X163507143Y-99073809D01*
X163411905Y-99026190D01*
X162602381Y-99026190D01*
X163602381Y-97978571D02*
X163126190Y-98311905D01*
X163602381Y-98550000D02*
X162602381Y-98550000D01*
X162602381Y-98169047D01*
X162650000Y-98073809D01*
X162697619Y-98026190D01*
X162792857Y-97978571D01*
X162935714Y-97978571D01*
X163030952Y-98026190D01*
X163078571Y-98073809D01*
X163126190Y-98169047D01*
X163126190Y-98550000D01*
X163078571Y-97550000D02*
X163078571Y-97216666D01*
X163602381Y-97073809D02*
X163602381Y-97550000D01*
X162602381Y-97550000D01*
X162602381Y-97073809D01*
X162935714Y-95978571D02*
X163602381Y-95740476D01*
X162935714Y-95502380D01*
X163602381Y-94597618D02*
X163602381Y-95169047D01*
X163602381Y-94883333D02*
X162602381Y-94883333D01*
X162745238Y-94978571D01*
X162840476Y-95073809D01*
X162888095Y-95169047D01*
X163507143Y-94169047D02*
X163554762Y-94121428D01*
X163602381Y-94169047D01*
X163554762Y-94216666D01*
X163507143Y-94169047D01*
X163602381Y-94169047D01*
X162602381Y-93502381D02*
X162602381Y-93407142D01*
X162650000Y-93311904D01*
X162697619Y-93264285D01*
X162792857Y-93216666D01*
X162983333Y-93169047D01*
X163221429Y-93169047D01*
X163411905Y-93216666D01*
X163507143Y-93264285D01*
X163554762Y-93311904D01*
X163602381Y-93407142D01*
X163602381Y-93502381D01*
X163554762Y-93597619D01*
X163507143Y-93645238D01*
X163411905Y-93692857D01*
X163221429Y-93740476D01*
X162983333Y-93740476D01*
X162792857Y-93692857D01*
X162697619Y-93645238D01*
X162650000Y-93597619D01*
X162602381Y-93502381D01*
D12*
X161850000Y-89200000D02*
X161850000Y-108300000D01*
X135150000Y-89200000D02*
X161850000Y-89200000D01*
X135150000Y-108300000D02*
X135150000Y-89200000D01*
X161850000Y-108300000D02*
X135150000Y-108300000D01*
X135521429Y-106542857D02*
X135607143Y-106571429D01*
X135750000Y-106571429D01*
X135807143Y-106542857D01*
X135835714Y-106514286D01*
X135864286Y-106457143D01*
X135864286Y-106400000D01*
X135835714Y-106342857D01*
X135807143Y-106314286D01*
X135750000Y-106285714D01*
X135635714Y-106257143D01*
X135578572Y-106228571D01*
X135550000Y-106200000D01*
X135521429Y-106142857D01*
X135521429Y-106085714D01*
X135550000Y-106028571D01*
X135578572Y-106000000D01*
X135635714Y-105971429D01*
X135778572Y-105971429D01*
X135864286Y-106000000D01*
X136064286Y-105971429D02*
X136207143Y-106571429D01*
X136321429Y-106142857D01*
X136435715Y-106571429D01*
X136578572Y-105971429D01*
X136921429Y-105971429D02*
X137035715Y-105971429D01*
X137092857Y-106000000D01*
X137150000Y-106057143D01*
X137178572Y-106171429D01*
X137178572Y-106371429D01*
X137150000Y-106485714D01*
X137092857Y-106542857D01*
X137035715Y-106571429D01*
X136921429Y-106571429D01*
X136864286Y-106542857D01*
X136807143Y-106485714D01*
X136778572Y-106371429D01*
X136778572Y-106171429D01*
X136807143Y-106057143D01*
X136864286Y-106000000D01*
X136921429Y-105971429D01*
X135892858Y-103450000D02*
X135835715Y-103421429D01*
X135750001Y-103421429D01*
X135664286Y-103450000D01*
X135607144Y-103507143D01*
X135578572Y-103564286D01*
X135550001Y-103678571D01*
X135550001Y-103764286D01*
X135578572Y-103878571D01*
X135607144Y-103935714D01*
X135664286Y-103992857D01*
X135750001Y-104021429D01*
X135807144Y-104021429D01*
X135892858Y-103992857D01*
X135921429Y-103964286D01*
X135921429Y-103764286D01*
X135807144Y-103764286D01*
X136178572Y-104021429D02*
X136178572Y-103421429D01*
X136521429Y-104021429D01*
X136521429Y-103421429D01*
X136807143Y-104021429D02*
X136807143Y-103421429D01*
X136950000Y-103421429D01*
X137035715Y-103450000D01*
X137092857Y-103507143D01*
X137121429Y-103564286D01*
X137150000Y-103678571D01*
X137150000Y-103764286D01*
X137121429Y-103878571D01*
X137092857Y-103935714D01*
X137035715Y-103992857D01*
X136950000Y-104021429D01*
X136807143Y-104021429D01*
X135542858Y-101442857D02*
X135628572Y-101471429D01*
X135771429Y-101471429D01*
X135828572Y-101442857D01*
X135857143Y-101414286D01*
X135885715Y-101357143D01*
X135885715Y-101300000D01*
X135857143Y-101242857D01*
X135828572Y-101214286D01*
X135771429Y-101185714D01*
X135657143Y-101157143D01*
X135600001Y-101128571D01*
X135571429Y-101100000D01*
X135542858Y-101042857D01*
X135542858Y-100985714D01*
X135571429Y-100928571D01*
X135600001Y-100900000D01*
X135657143Y-100871429D01*
X135800001Y-100871429D01*
X135885715Y-100900000D01*
X136085715Y-100871429D02*
X136228572Y-101471429D01*
X136342858Y-101042857D01*
X136457144Y-101471429D01*
X136600001Y-100871429D01*
X137171429Y-101414286D02*
X137142858Y-101442857D01*
X137057144Y-101471429D01*
X137000001Y-101471429D01*
X136914286Y-101442857D01*
X136857144Y-101385714D01*
X136828572Y-101328571D01*
X136800001Y-101214286D01*
X136800001Y-101128571D01*
X136828572Y-101014286D01*
X136857144Y-100957143D01*
X136914286Y-100900000D01*
X137000001Y-100871429D01*
X137057144Y-100871429D01*
X137142858Y-100900000D01*
X137171429Y-100928571D01*
X137714286Y-101471429D02*
X137428572Y-101471429D01*
X137428572Y-100871429D01*
X137914286Y-101471429D02*
X137914286Y-100871429D01*
X138257143Y-101471429D02*
X138000000Y-101128571D01*
X138257143Y-100871429D02*
X137914286Y-101214286D01*
X135871428Y-98921429D02*
X135671428Y-98635714D01*
X135528571Y-98921429D02*
X135528571Y-98321429D01*
X135757143Y-98321429D01*
X135814285Y-98350000D01*
X135842857Y-98378571D01*
X135871428Y-98435714D01*
X135871428Y-98521429D01*
X135842857Y-98578571D01*
X135814285Y-98607143D01*
X135757143Y-98635714D01*
X135528571Y-98635714D01*
X136100000Y-98892857D02*
X136185714Y-98921429D01*
X136328571Y-98921429D01*
X136385714Y-98892857D01*
X136414285Y-98864286D01*
X136442857Y-98807143D01*
X136442857Y-98750000D01*
X136414285Y-98692857D01*
X136385714Y-98664286D01*
X136328571Y-98635714D01*
X136214285Y-98607143D01*
X136157143Y-98578571D01*
X136128571Y-98550000D01*
X136100000Y-98492857D01*
X136100000Y-98435714D01*
X136128571Y-98378571D01*
X136157143Y-98350000D01*
X136214285Y-98321429D01*
X136357143Y-98321429D01*
X136442857Y-98350000D01*
X136614286Y-98321429D02*
X136957143Y-98321429D01*
X136785714Y-98921429D02*
X136785714Y-98321429D01*
X135528572Y-96392857D02*
X135614286Y-96421429D01*
X135757143Y-96421429D01*
X135814286Y-96392857D01*
X135842857Y-96364286D01*
X135871429Y-96307143D01*
X135871429Y-96250000D01*
X135842857Y-96192857D01*
X135814286Y-96164286D01*
X135757143Y-96135714D01*
X135642857Y-96107143D01*
X135585715Y-96078571D01*
X135557143Y-96050000D01*
X135528572Y-95992857D01*
X135528572Y-95935714D01*
X135557143Y-95878571D01*
X135585715Y-95850000D01*
X135642857Y-95821429D01*
X135785715Y-95821429D01*
X135871429Y-95850000D01*
X136071429Y-95821429D02*
X136214286Y-96421429D01*
X136328572Y-95992857D01*
X136442858Y-96421429D01*
X136585715Y-95821429D01*
X136814286Y-96421429D02*
X136814286Y-95821429D01*
X136957143Y-95821429D01*
X137042858Y-95850000D01*
X137100000Y-95907143D01*
X137128572Y-95964286D01*
X137157143Y-96078571D01*
X137157143Y-96164286D01*
X137128572Y-96278571D01*
X137100000Y-96335714D01*
X137042858Y-96392857D01*
X136957143Y-96421429D01*
X136814286Y-96421429D01*
X137414286Y-96421429D02*
X137414286Y-95821429D01*
X137814286Y-95821429D02*
X137928572Y-95821429D01*
X137985714Y-95850000D01*
X138042857Y-95907143D01*
X138071429Y-96021429D01*
X138071429Y-96221429D01*
X138042857Y-96335714D01*
X137985714Y-96392857D01*
X137928572Y-96421429D01*
X137814286Y-96421429D01*
X137757143Y-96392857D01*
X137700000Y-96335714D01*
X137671429Y-96221429D01*
X137671429Y-96021429D01*
X137700000Y-95907143D01*
X137757143Y-95850000D01*
X137814286Y-95821429D01*
X135507142Y-93271429D02*
X135878571Y-93271429D01*
X135678571Y-93500000D01*
X135764285Y-93500000D01*
X135821428Y-93528571D01*
X135849999Y-93557143D01*
X135878571Y-93614286D01*
X135878571Y-93757143D01*
X135849999Y-93814286D01*
X135821428Y-93842857D01*
X135764285Y-93871429D01*
X135592857Y-93871429D01*
X135535714Y-93842857D01*
X135507142Y-93814286D01*
X136050000Y-93271429D02*
X136250000Y-93871429D01*
X136450000Y-93271429D01*
X136592857Y-93271429D02*
X136964286Y-93271429D01*
X136764286Y-93500000D01*
X136850000Y-93500000D01*
X136907143Y-93528571D01*
X136935714Y-93557143D01*
X136964286Y-93614286D01*
X136964286Y-93757143D01*
X136935714Y-93814286D01*
X136907143Y-93842857D01*
X136850000Y-93871429D01*
X136678572Y-93871429D01*
X136621429Y-93842857D01*
X136592857Y-93814286D01*
D11*
X144750000Y-121050000D02*
X152250000Y-121050000D01*
X152250000Y-121050000D02*
X152250000Y-126050000D01*
X152250000Y-126050000D02*
X144750000Y-126050000D01*
X144750000Y-126050000D02*
X144750000Y-121050000D01*
X141000000Y-115100000D02*
G75*
G03X141000000Y-115100000I-1000000J0D01*
G01*
X138800000Y-113300000D02*
X141200000Y-113300000D01*
X138200000Y-113900000D02*
X138800000Y-113300000D01*
X138200000Y-116300000D02*
X138200000Y-113900000D01*
X138800000Y-116900000D02*
X138200000Y-116300000D01*
X141200000Y-116900000D02*
X138800000Y-116900000D01*
X141800000Y-116300000D02*
X141200000Y-116900000D01*
X141800000Y-113900000D02*
X141800000Y-116300000D01*
X141200000Y-113300000D02*
X141800000Y-113900000D01*
X138550000Y-112400000D02*
X141450000Y-112400000D01*
X138100000Y-112850000D02*
X138550000Y-112400000D01*
X137300000Y-116100000D02*
X137300000Y-114100000D01*
X138550000Y-117800000D02*
X138100000Y-117350000D01*
X141450000Y-117800000D02*
X138550000Y-117800000D01*
X141900000Y-117350000D02*
X141450000Y-117800000D01*
X142700000Y-114100000D02*
X142700000Y-116100000D01*
X141450000Y-112400000D02*
X141900000Y-112850000D01*
X158000000Y-115100000D02*
G75*
G03X158000000Y-115100000I-1000000J0D01*
G01*
X155800000Y-113300000D02*
X158200000Y-113300000D01*
X155200000Y-113900000D02*
X155800000Y-113300000D01*
X155200000Y-116300000D02*
X155200000Y-113900000D01*
X155800000Y-116900000D02*
X155200000Y-116300000D01*
X158200000Y-116900000D02*
X155800000Y-116900000D01*
X158800000Y-116300000D02*
X158200000Y-116900000D01*
X158800000Y-113900000D02*
X158800000Y-116300000D01*
X158200000Y-113300000D02*
X158800000Y-113900000D01*
X155550000Y-112400000D02*
X158450000Y-112400000D01*
X155100000Y-112850000D02*
X155550000Y-112400000D01*
X154300000Y-116100000D02*
X154300000Y-114100000D01*
X155550000Y-117800000D02*
X155100000Y-117350000D01*
X158450000Y-117800000D02*
X155550000Y-117800000D01*
X158900000Y-117350000D02*
X158450000Y-117800000D01*
X159700000Y-114100000D02*
X159700000Y-116100000D01*
X158450000Y-112400000D02*
X158900000Y-112850000D01*
D13*
X148800000Y-116850000D02*
X148800000Y-115850000D01*
X148800000Y-115850000D02*
X148200000Y-115850000D01*
X148200000Y-109450000D02*
X148800000Y-109450000D01*
X146550000Y-113750000D02*
X146550000Y-111550000D01*
X150450000Y-111550000D02*
X150450000Y-113750000D01*
X150450000Y-113750000D02*
X151300000Y-113750000D01*
D12*
X142957143Y-123021429D02*
X142957143Y-122421429D01*
X143300000Y-123021429D02*
X143042857Y-122678571D01*
X143300000Y-122421429D02*
X142957143Y-122764286D01*
X143871429Y-123021429D02*
X143528572Y-123021429D01*
X143700000Y-123021429D02*
X143700000Y-122421429D01*
X143642857Y-122507143D01*
X143585715Y-122564286D01*
X143528572Y-122592857D01*
X139200000Y-111992857D02*
X139285714Y-112021429D01*
X139428571Y-112021429D01*
X139485714Y-111992857D01*
X139514285Y-111964286D01*
X139542857Y-111907143D01*
X139542857Y-111850000D01*
X139514285Y-111792857D01*
X139485714Y-111764286D01*
X139428571Y-111735714D01*
X139314285Y-111707143D01*
X139257143Y-111678571D01*
X139228571Y-111650000D01*
X139200000Y-111592857D01*
X139200000Y-111535714D01*
X139228571Y-111478571D01*
X139257143Y-111450000D01*
X139314285Y-111421429D01*
X139457143Y-111421429D01*
X139542857Y-111450000D01*
X139742857Y-111421429D02*
X139885714Y-112021429D01*
X140000000Y-111592857D01*
X140114286Y-112021429D01*
X140257143Y-111421429D01*
X140800000Y-112021429D02*
X140457143Y-112021429D01*
X140628571Y-112021429D02*
X140628571Y-111421429D01*
X140571428Y-111507143D01*
X140514286Y-111564286D01*
X140457143Y-111592857D01*
X156200000Y-111992857D02*
X156285714Y-112021429D01*
X156428571Y-112021429D01*
X156485714Y-111992857D01*
X156514285Y-111964286D01*
X156542857Y-111907143D01*
X156542857Y-111850000D01*
X156514285Y-111792857D01*
X156485714Y-111764286D01*
X156428571Y-111735714D01*
X156314285Y-111707143D01*
X156257143Y-111678571D01*
X156228571Y-111650000D01*
X156200000Y-111592857D01*
X156200000Y-111535714D01*
X156228571Y-111478571D01*
X156257143Y-111450000D01*
X156314285Y-111421429D01*
X156457143Y-111421429D01*
X156542857Y-111450000D01*
X156742857Y-111421429D02*
X156885714Y-112021429D01*
X157000000Y-111592857D01*
X157114286Y-112021429D01*
X157257143Y-111421429D01*
X157457143Y-111478571D02*
X157485714Y-111450000D01*
X157542857Y-111421429D01*
X157685714Y-111421429D01*
X157742857Y-111450000D01*
X157771428Y-111478571D01*
X157800000Y-111535714D01*
X157800000Y-111592857D01*
X157771428Y-111678571D01*
X157428571Y-112021429D01*
X157800000Y-112021429D01*
X144864286Y-110035714D02*
X144864286Y-110321429D01*
X144664286Y-109721429D02*
X144864286Y-110035714D01*
X145064286Y-109721429D01*
X145578572Y-110321429D02*
X145235715Y-110321429D01*
X145407143Y-110321429D02*
X145407143Y-109721429D01*
X145350000Y-109807143D01*
X145292858Y-109864286D01*
X145235715Y-109892857D01*
M02*
